<!--Black & White Logo Sprite Sheet -->

<svg className="icon-collection" xmlns="http://www.w3.org/2000/svg" style="display: none;">

    <!-- C -->
    <symbol id="bw-tech-c" viewBox="0 0 24 24">

        <svg className="c" xmlns="http://www.w3.org/2000/svg" viewBox="0 0 374.94 374.78">
            <g id="Layer_2" data-name="Layer 2">
                <g id="Layer_1-2" data-name="Layer 1">
                    <path
                        d="M374.94,186.82c.44,103.14-82.75,187.13-186.17,188C85.05,375.6.4,291.81,0,187.92-.4,84.78,82.91.7,186.17,0A187.27,187.27,0,0,1,374.94,186.82Zm-86-18.84C277,108.54,229.22,76.41,170.13,85.56c-54,8.37-90.31,57.68-84.44,114.66,5.56,54,52.2,92.73,108.56,90.25,50.78-2.24,93.18-40.74,93.5-86.32-15.38,0-30.82-.53-46.18.39-3.59.21-8.18,4.65-10.11,8.31-6.65,12.6-15.74,21.91-29.78,25.46-24.65,6.22-47.62-6.14-56.47-30.1-10-26.94.58-57.41,23.76-68.78,22.69-11.12,47.19-2.94,61.85,20.23,2.13,3.36,6,7.78,9.19,8C255.82,168.43,271.69,168,288.94,168Z" />
                </g>
            </g>
        </svg>

    </symbol>

    <!-- freeRTOS -->
    <symbol id="bw-tech-freeRTOS" viewBox="0 0 24 24">

        <svg className="freertos" xmlns="http://www.w3.org/2000/svg" viewBox="0 0 86.22 32.18">
            <g id="Layer_2" data-name="Layer 2">
                <g id="Layer_1-2" data-name="Layer 1">
                    <path
                        d="M18.1.06c1.95,0,3.9,0,5.85,0,2.76,0,5.52.14,8.28.2s5.66.15,8.49.2c4.53.09,9.06.15,13.59.23l9.87.2C68.6,1,73,1,77.45,1.13c1.38,0,2.76.12,4.13.21a4.89,4.89,0,0,1,4.63,5c-.11,2.94-.37,5.86-.57,8.79-.09,1.34-.18,2.68-.28,4-.21,2.72-.38,5.44-.68,8.14a5.71,5.71,0,0,1-5.55,4.91c-2.44,0-4.88-.24-7.31-.38l-4-.26L60,31l-6.13-.47-7.93-.6-3.38-.23c-2.43-.16-4.87-.29-7.3-.47s-4.65-.39-7-.57c-1.12-.09-2.25-.17-3.38-.24-2.43-.15-4.87-.28-7.3-.46s-4.65-.4-7-.58c-1.56-.11-3.11-.15-4.66-.27a28.83,28.83,0,0,1-3.47-.42,3.17,3.17,0,0,1-2.45-3,9.54,9.54,0,0,1,.87-4.22L4.41,10C5.21,7.87,6,5.69,6.82,3.57A5.53,5.53,0,0,1,12.05.05c2-.1,4,0,6.05,0Zm-9,1.41C7.75,5.2,6.37,8.86,5,12.55s-2.61,7.39-4,11.23c1.12.11,2,.23,2.93.3,1.37.1,2.75.15,4.12.25,2.47.19,4.93.41,7.4.59,2.11.16,4.23.28,6.34.43,3.1.21,6.2.44,9.3.63,2.72.18,5.44.3,8.15.46,1.17.07,2.33.14,3.49.23,2.54.19,5.07.41,7.61.59,3.17.23,6.34.42,9.51.64s6.13.45,9.2.64c2.89.18,5.79.3,8.68.45.28,0,.56.1.84.12A8,8,0,0,0,81.73,29c.28-1.4,2.51-25.25,2.08-26a3.05,3.05,0,0,0-.66-.15c-1.91-.08-3.81-.16-5.72-.21-3-.08-6-.14-9-.2L58.22,2.21,47.71,2,37.42,1.78l-9.66-.21-9.23-.21c-2.8-.07-5.59-.13-8.39-.17A4.28,4.28,0,0,0,9.13,1.47Z" />
                    <path
                        d="M55.7,4.85A12.44,12.44,0,0,1,60,5.6a5.29,5.29,0,0,1,3.52,6.24,15.33,15.33,0,0,1-1.14,3.51A7.22,7.22,0,0,1,57.56,19a12.84,12.84,0,0,1-7.83-.1c-3.31-1.06-4.29-3.43-3.89-6.51a8.45,8.45,0,0,1,2.61-5.32,8.34,8.34,0,0,1,4.2-1.93C53.65,5,54.68,5,55.7,4.85Zm-5,7.88c0,1.65,0,1.71.56,2.37a3.45,3.45,0,0,0,4.64.79,5.26,5.26,0,0,0,2.59-4.16c.46-3.09-2-4.88-4.83-3.61A5.12,5.12,0,0,0,50.68,12.73Z" />
                    <path
                        d="M78.41,6.16l-.66,2.9c-.75-.18-1.39-.37-2-.46a11,11,0,0,0-1.9-.14,13.94,13.94,0,0,0-2.41.22c-.35.07-.64.45-1.1.79a5.16,5.16,0,0,0,1,.85,17.6,17.6,0,0,0,2,.74,25,25,0,0,1,3.1,1c2.1,1.05,2.5,3.3,1.41,5.49a4.86,4.86,0,0,1-3.15,2.36c-3.55,1-7.06.5-10.73-.48l.95-3.33,1.77.54a10.23,10.23,0,0,0,4.91.42A1.59,1.59,0,0,0,73,15.88a2.4,2.4,0,0,0-1.66-1.35c-1-.34-2-.64-3-1A10,10,0,0,1,67.11,13a2.94,2.94,0,0,1-1.8-3.17,3.76,3.76,0,0,1,2-3.18A9.09,9.09,0,0,1,71.2,5.55a26.54,26.54,0,0,1,5.91.24C77.48,5.85,77.85,6,78.41,6.16Z" />
                    <path
                        d="M22.4,12.27c-.9,1.56-1.09,3.44-1.92,5.13a9.32,9.32,0,0,1-4.32-.31l4.47-13c1.06,0,2.11,0,3.16,0,1.56,0,3.12.08,4.66.21a8.79,8.79,0,0,1,2.27.51,2.39,2.39,0,0,1,1.41,2.8,3.89,3.89,0,0,1-1.82,2.62l-1.4.75.9,6.67a10.83,10.83,0,0,1-4.61,0c-.08-.64-.19-1.33-.26-2,0-.35,0-.71,0-1.06C24.88,13.09,24.26,12.17,22.4,12.27Zm.88-3.09c2.34.79,3.7.33,4.2-1.44-.88-1.11-2.11-.86-3.43-.82Z" />
                    <path
                        d="M77.58,22.83l-.32,1.9c-.72,0-1.31,0-1.9,0-3.54-.21-7.07-.41-10.6-.64-4-.25-8-.54-12-.78-2.86-.18-5.73-.31-8.59-.48s-5.64-.38-8.46-.57L32.15,22l-9.23-.48c-2.43-.13-4.87-.28-7.31-.43a7.68,7.68,0,0,1-.8-.2l.59-1.71c.67,0,1.3,0,1.93,0,2.19.12,4.38.26,6.57.4l12.7.79c1.59.1,3.19.16,4.78.25l10.06.6c1.27.08,2.54.17,3.81.23,3.32.17,6.65.31,10,.49q5.3.29,10.59.62C76.34,22.62,76.86,22.73,77.58,22.83Z" />
                    <path
                        d="M46.93,5l-.6,2.5c-1.38.7-2.79-.36-4.11.42-.49,1.72-1,3.47-1.48,5.24s-.87,3.53-1.28,5.22h-4.7c.82-3.8,2.09-7.27,2.94-11.07H33.85l.77-2.75c.89,0,1.73,0,2.57,0,2.75.07,5.51.14,8.26.23A14.6,14.6,0,0,1,46.93,5Z" />
                    <path
                        d="M13.89,19.11,13.31,21l-3.76-.25-.64.91-1.19-.07v-1c-.26,0-.46-.06-.67-.11a1.24,1.24,0,0,1-1-1.56,6.18,6.18,0,0,1,.31-1c.12-.33.26-.65.43-1.06l1.41.07-.35,1.59.53.22.74-1,1.27-.06-.09,1.15Z" />
                    <path
                        d="M12,13.46c-1.34-.83-1-2.78.11-3.63a3.56,3.56,0,0,1,3.29-.74l-.88,2.76c.93-.58.93-.58,1.38-2.37h1c.71,2.6-2,4.74-4.94,4Z" />
                    <path
                        d="M18.89,4.31a3.67,3.67,0,0,1-3.05,4,2.29,2.29,0,0,1-2.55-.85c-.61-1-.06-1.79.42-2.56A3.46,3.46,0,0,1,17.25,4l-.39,1.17c-.11.35-.23.71-.39,1.23C17.62,6,17.35,5,17.68,4.22Z" />
                    <path
                        d="M12,13.46l-.15,1.28c.4.61,1,.57,1.54.59s1.11.06,1.86.1l-.62,1.79L9.36,17c.08-.76.21-1.37.69-1.63l.29-1.86Z" />
                </g>
            </g>
        </svg>

    </symbol>

    <!-- STM -->
    <symbol id="bw-tech-STM" viewBox="0 0 24 24">

        <svg className="stm" xmlns="http://www.w3.org/2000/svg" viewBox="0 0 221.09 138.44">
            <g id="Layer_2" data-name="Layer 2">
                <g id="Layer_1-2" data-name="Layer 1">
                    <g id="Layer_2-2" data-name="Layer 2">
                        <g id="Layer_1-2-2" data-name="Layer 1-2">
                            <path
                                d="M127.45,138.44c3.19-7.91,6.25-15.87,9.61-23.71,5.86-13.64,11.95-27.2,17.87-40.82q5.17-12,10.16-24c1.19-2.83,3-4.13,6.26-4,8.45.21,16.91.06,25.37.08,1.2,0,2.39.17,4.29.32-2.58,6-4.91,11.58-7.31,17.09q-7,16.2-14.14,32.34c-5.47,12.46-11,24.9-16.41,37.39a32.34,32.34,0,0,0-1.32,5.3Z" />
                            <path
                                d="M81.1,138.44C84,136.22,87,134,89.89,131.77c7.6-5.8,10.88-13.72,11.8-23,1.42-14.47-6.3-24-16.58-32.56-4.86-4-9.06-8.86-13.59-13.3-2.82-2.77-5.93-5.29-8.46-8.3s-1.39-6.49,2.44-7.84A15.56,15.56,0,0,1,70.62,46Q102,46,133.39,46c4.81,0,4.9.37,3,4.84C131.2,62.81,126.18,74.82,121,86.76c-4.4,10.06-8.87,20.18-13.3,30.18q-4.71,10.74-9.43,21.47Z" />
                            <path
                                d="M221.09,0c-2.79,6.31-5.1,11.76-7.64,17.09a4.75,4.75,0,0,1-2.94,1.81,16.89,16.89,0,0,1-4.08.13c-46.2,0-92.4-.31-138.59.16-17.46.21-29,9.81-32.46,25.91C33,56.35,36.13,66.82,44.8,75s17.35,16.33,26,24.51a9.69,9.69,0,0,1,2.64,3.09c.76,1.95,2,4.61,1.2,6A7.56,7.56,0,0,1,69,112c-22.28.23-44.57.14-66.86.13A14.36,14.36,0,0,1,0,111.74a15.07,15.07,0,0,1,.69-2.8C5.3,98.37,10,87.84,14.59,77.27Q26.67,49.48,38.66,21.63c2.73-6.37,5.19-12.85,8-19.18C47.13,1.39,48.72.73,49.92.13c.6-.3,1.47,0,2.22,0h169Z" />
                        </g>
                    </g>
                </g>
            </g>
        </svg>

    </symbol>

    <!-- C++ -->
    <symbol id="bw-tech-cpp" viewBox="0 0 24 24">

        <svg className="cpp" xmlns="http://www.w3.org/2000/svg" viewBox="0 0 28.47 32">
            <g id="Layer_2" data-name="Layer 2">
                <g id="Layer_1-2" data-name="Layer 1">
                    <path
                        d="M14.6,32h-.74a4.41,4.41,0,0,1-1.51-.65L8.81,29.3,1.29,25a2.21,2.21,0,0,1-.95-1C.2,23.65.11,23.32,0,23V9c0-.06,0-.13.05-.19A2.77,2.77,0,0,1,1.36,7L13,.33a3.58,3.58,0,0,1,.67-.26A1.94,1.94,0,0,1,14,0h.56l.15,0a5.81,5.81,0,0,1,.86.3L27.13,7a2.75,2.75,0,0,1,1.28,1.7l.06.21V23.07l-.06.21A2.72,2.72,0,0,1,27.11,25l-11,6.35A4.33,4.33,0,0,1,14.6,32Zm3.76-13.62-.09.12a4.61,4.61,0,0,1-4.51,2.21,4.49,4.49,0,0,1-3.67-2.42,4.63,4.63,0,0,1-.54-3,4.74,4.74,0,0,1,8.69-1.79c.07.12.13.15.26.07l3.77-2.18c.18-.11.19-.11.07-.29a9.37,9.37,0,0,0-7.92-4.54A9,9,0,0,0,9.15,8a9.47,9.47,0,0,0,6.69,17.33,9.29,9.29,0,0,0,6.51-4.43,1,1,0,0,0,.08-.15ZM23.72,16c0-.12,0-.25,0-.37s0-.16-.15-.15h-.78c-.1,0-.13,0-.13-.14v-.77c0-.1,0-.15-.14-.15h-.77c-.1,0-.14,0-.13.14s0,.48,0,.73,0,.2-.19.19h-.74c-.09,0-.13,0-.13.12q0,.39,0,.78c0,.12.05.15.16.14s.5,0,.76,0c.11,0,.14,0,.14.14,0,.26,0,.52,0,.78,0,.1,0,.14.13.14h.79c.09,0,.12,0,.12-.13,0-.25,0-.51,0-.76s0-.17.16-.17.51,0,.76,0,.14,0,.14-.13S23.72,16.13,23.72,16Zm3.42.52h.39c.1,0,.14,0,.14-.13q0-.39,0-.78c0-.1,0-.13-.14-.13h-.76c-.13,0-.16-.05-.16-.16v-.76c0-.1,0-.14-.14-.14h-.74c-.12,0-.16,0-.15.15s0,.49,0,.73,0,.19-.18.18h-.74c-.1,0-.14,0-.14.13v.78c0,.1,0,.14.14.13s.5,0,.74,0,.18.05.18.18,0,.48,0,.73,0,.15.15.15h.73c.11,0,.15,0,.15-.16v-.75c0-.11,0-.16.14-.15S27,16.52,27.14,16.52Z" />
                </g>
            </g>
        </svg>

    </symbol>

    <!-- Python -->
    <symbol id="bw-tech-python" viewBox="0 0 24 24">
        <svg xmlns="http://www.w3.org/2000/svg" viewBox="0 0 448 512">
            <!--!Font Awesome Free 6.6.0 by @fontawesome - https://fontawesome.com License - https://fontawesome.com/license/free Copyright 2024 Fonticons, Inc.-->
            <path
                d="M439.8 200.5c-7.7-30.9-22.3-54.2-53.4-54.2h-40.1v47.4c0 36.8-31.2 67.8-66.8 67.8H172.7c-29.2 0-53.4 25-53.4 54.3v101.8c0 29 25.2 46 53.4 54.3 33.8 9.9 66.3 11.7 106.8 0 26.9-7.8 53.4-23.5 53.4-54.3v-40.7H226.2v-13.6h160.2c31.1 0 42.6-21.7 53.4-54.2 11.2-33.5 10.7-65.7 0-108.6zM286.2 404c11.1 0 20.1 9.1 20.1 20.3 0 11.3-9 20.4-20.1 20.4-11 0-20.1-9.2-20.1-20.4 .1-11.3 9.1-20.3 20.1-20.3zM167.8 248.1h106.8c29.7 0 53.4-24.5 53.4-54.3V91.9c0-29-24.4-50.7-53.4-55.6-35.8-5.9-74.7-5.6-106.8 .1-45.2 8-53.4 24.7-53.4 55.6v40.7h106.9v13.6h-147c-31.1 0-58.3 18.7-66.8 54.2-9.8 40.7-10.2 66.1 0 108.6 7.6 31.6 25.7 54.2 56.8 54.2H101v-48.8c0-35.3 30.5-66.4 66.8-66.4zm-6.7-142.6c-11.1 0-20.1-9.1-20.1-20.3 .1-11.3 9-20.4 20.1-20.4 11 0 20.1 9.2 20.1 20.4s-9 20.3-20.1 20.3z" />
        </svg>
    </symbol>

    <!-- QT -->
    <symbol id="bw-tech-qt" viewBox="0 0 24 24">

        <svg className="qt" xmlns="http://www.w3.org/2000/svg" viewBox="0 0 27.32 32.79">
            <g id="Layer_2" data-name="Layer 2">
                <g id="Layer_1-2" data-name="Layer 1">
                    <path
                        d="M27.32,3.48V25.26c-.06.21-.14.4-.18.61A3.81,3.81,0,0,1,24,29.18c-3.75.55-7.48,1.23-11.22,1.86-3.29.56-6.58,1.12-9.87,1.71a1.23,1.23,0,0,1-1.27-.33c-.51-.54-1.11-1-1.67-1.48V3.48a.94.94,0,0,0,.12-.22A3.77,3.77,0,0,1,4,.14C4.41.12,4.78.05,5.15,0H6.7A11.13,11.13,0,0,0,7.79.31L18.32,2ZM18.23,14.63c-.13-.75-.32-2.13-.61-3.48a9.46,9.46,0,0,0-.77-2.36A5.13,5.13,0,0,0,11.67,6,4.86,4.86,0,0,0,7.31,9.38a15.11,15.11,0,0,0-.86,5.11A18.17,18.17,0,0,0,7.28,21,5,5,0,0,0,10,24.28a1.58,1.58,0,0,1,1.2,1.37,2.5,2.5,0,0,0,.26.72,3.19,3.19,0,0,0,3.27,2c1.52,0,1.51-.06,1.52-1.59,0-.52,0-.95-.72-.88a.55.55,0,0,1-.37-.09,4.4,4.4,0,0,1-.8-1c-.2-.44.29-.55.56-.72A5.28,5.28,0,0,0,17,21.74C18,19.68,18.12,17.48,18.23,14.63Zm1.21-2.07v.72c0,2.53,0,5.07,0,7.6a2.36,2.36,0,0,0,1.68,2.6c1.13.38,2.15-.13,3.17-.51a.39.39,0,0,0,.2-.3c0-.54,0-1.08,0-1.69l-.37.11c-1.44.51-1.79.27-1.79-1.25q0-3.21,0-6.44c0-.23,0-.46,0-.75a9.2,9.2,0,0,0,1.4.14.77.77,0,0,0,.57-.4c.31-1.5.07-1.82-1.43-1.87-.47,0-.6-.2-.58-.62s0-.9,0-1.35c0-1.38,0-1.37-1.39-1.4-.43,0-.6.15-.68.56-.1.57-.26,1.12-.39,1.69-.26,1.07,0,1-1.25.87,0,0-.07,0-.17.1v1.11C18.46,12.39,18.46,12.39,19.44,12.56Z" />
                    <path
                        d="M10.37,14.76c.11-1.16.21-2.66.4-4.14a3.13,3.13,0,0,1,.6-1.4,1.4,1.4,0,0,1,2.54.21,8,8,0,0,1,.74,2.63,29.49,29.49,0,0,1-.11,7.45,5.87,5.87,0,0,1-.68,2,1.29,1.29,0,0,1-2.27.2A4.49,4.49,0,0,1,10.64,19C10.49,17.72,10.47,16.41,10.37,14.76Z" />
                </g>
            </g>
        </svg>

    </symbol>

    <!-- Pandas DataFrame -->
    <symbol id="bw-tech-pandas" viewBox="0 0 24 24">

        <svg className="pandas" xmlns="http://www.w3.org/2000/svg" viewBox="0 0 44.33 31.96">
            <g id="Layer_2" data-name="Layer 2">
                <g id="Layer_1-2" data-name="Layer 1">
                    <path
                        d="M0,32c0-2.41,0-4.82,0-7.22V22.83c.47,0,.92,0,1.36,0,.07,0,.18.15.2.24a5.72,5.72,0,0,1,0,.62c.24-.2.43-.39.64-.54a2.87,2.87,0,0,1,4.21,1A3.67,3.67,0,0,1,6.32,28a2.87,2.87,0,0,1-4.21.69l-.37-.29V32Zm5.15-6A2,2,0,0,0,4,24a1.66,1.66,0,0,0-1.85.54,2.33,2.33,0,0,0-.22,2.52,1.67,1.67,0,0,0,2.3.77A1.93,1.93,0,0,0,5.17,26Z" />
                    <path
                        d="M27.87,0V13.68c-.63,0-1.23,0-1.82,0-.07,0-.16-.12-.19-.2a1.53,1.53,0,0,1,0-.37V.53c0-.18,0-.35,0-.53Z" />
                    <path
                        d="M28.38,20.39h1.7V29.1H28.56l-.06-.86c-.11.11-.19.17-.26.25a2.91,2.91,0,0,1-4.44-.44,3.83,3.83,0,0,1,.05-4.21,2.92,2.92,0,0,1,4.24-.5l.29.26Zm.08,5.47a1.76,1.76,0,0,0,0-.28A1.82,1.82,0,0,0,27.15,24a1.68,1.68,0,0,0-1.82.63,2.48,2.48,0,0,0,0,2.68,1.69,1.69,0,0,0,1.92.65A1.94,1.94,0,0,0,28.46,25.86Z" />
                    <path
                        d="M13.18,23.65l.08-.8h1.5V29.1h-1.5l-.09-.82a1.56,1.56,0,0,0-.17.12,2.91,2.91,0,0,1-4.95-1.29A3.69,3.69,0,0,1,8.45,24a2.89,2.89,0,0,1,4.39-.55,1.58,1.58,0,0,1,.22.29Zm0,2.11a4.3,4.3,0,0,0-.35-1,1.66,1.66,0,0,0-2.77-.19,2.32,2.32,0,0,0-.2,2.49,1.66,1.66,0,0,0,2.33.77A2.17,2.17,0,0,0,13.17,25.76Z" />
                    <path d="M18.44,18.13h-2V4.48h2Z" />
                    <path
                        d="M36.36,23.65c0-.26,0-.68.14-.75a2.13,2.13,0,0,1,.92-.08H38v6.31c-.46,0-.89,0-1.33,0-.07,0-.18-.16-.21-.27a5.08,5.08,0,0,1,0-.65,3,3,0,0,1-1.68,1,2.83,2.83,0,0,1-3.26-1.61A3.65,3.65,0,0,1,31.65,24a2.87,2.87,0,0,1,4.45-.48,1,1,0,0,1,.16.24Zm0,2.32c0-.11,0-.22,0-.33a1.82,1.82,0,0,0-1.69-1.71,1.71,1.71,0,0,0-1.78,1.54,3.31,3.31,0,0,0,.07,1.33A1.68,1.68,0,0,0,35,28,1.9,1.9,0,0,0,36.34,26Z" />
                    <path
                        d="M22.43,29.13c-.57,0-1.05,0-1.52,0-.08,0-.22-.21-.22-.32,0-1,0-2,0-3a4.79,4.79,0,0,0,0-.65,1.13,1.13,0,0,0-1.6-1,1.7,1.7,0,0,0-1.2,1.63c0,1.11,0,2.22,0,3.36h-1.7V22.86h1.54l.11,1a4.31,4.31,0,0,1,.41-.43A2.7,2.7,0,0,1,21,22.8a1.74,1.74,0,0,1,1.25,1.54C22.38,25.92,22.38,27.5,22.43,29.13Z" />
                    <path
                        d="M43.76,24.22c-.64-.14-1.22-.29-1.81-.39a.8.8,0,0,0-.55.07c-.19.11-.43.3-.46.48s.18.41.35.53a2.43,2.43,0,0,0,.64.24,11.22,11.22,0,0,1,1.31.45,1.68,1.68,0,0,1,1.09,1.68,1.91,1.91,0,0,1-1.18,1.78A4.15,4.15,0,0,1,40,29c-.8-.29-.8-.3-.6-1.13,0-.13.07-.26.08-.31.71.19,1.39.4,2.08.55a1.51,1.51,0,0,0,.84-.11.79.79,0,0,0,.42-.53.79.79,0,0,0-.38-.54,5.53,5.53,0,0,0-.92-.31,6.15,6.15,0,0,1-1.31-.56A1.78,1.78,0,0,1,40.34,23,3.48,3.48,0,0,1,43,22.8c1.05.29,1.1.38.75,1.42Z" />
                    <path d="M22.79,4.47h1.93V8.56H22.79Z" />
                    <path d="M21.6,5.17H19.67V1.1H21.6Z" />
                    <path d="M21.61,9.54v4.08H19.66V9.54Z" />
                    <path d="M24.72,17H22.79V12.93h1.93Z" />
                    <path d="M22.8,11.69V9.8h1.91v1.89Z" />
                    <path d="M20.63,8.26c-.94,0-.94,0-.94-.92s0-.89.92-.89,1,0,1,1S21.59,8.26,20.63,8.26Z" />
                </g>
            </g>
        </svg>

    </symbol>

    <!-- PYGAME -->
    <symbol id="bw-tech-pygame" viewBox="0 0 24 24">

        <svg className="pygame" xmlns="http://www.w3.org/2000/svg" viewBox="0 0 119.3 33.51">
            <g id="Layer_2" data-name="Layer 2">
                <g id="Layer_1-2" data-name="Layer 1">
                    <g id="Layer_2-2" data-name="Layer 2">
                        <g id="Layer_1-2-2" data-name="Layer 1-2">
                            <path
                                d="M56.26,33.49c-.48-.07-1-.12-1.44-.2a12.08,12.08,0,0,1-3.38-1A2.49,2.49,0,0,0,50.28,32c-1,0-1.94-.05-2.92,0a2.77,2.77,0,0,0-1.13.28,7.83,7.83,0,0,1-3.59.84c-.92,0-1.85,0-2.77-.07A5.63,5.63,0,0,1,37,31.84a3.87,3.87,0,0,0-3.7-.66,1.35,1.35,0,0,0-.42.2A12.79,12.79,0,0,1,28,33.05a15.85,15.85,0,0,1-7.52-.58,6.71,6.71,0,0,1-2.73-1.67.56.56,0,0,0-.71-.15A3.92,3.92,0,0,0,15,32.23a3.16,3.16,0,0,1-.37.45.79.79,0,0,1-.92.16c-.31-.11-.36-.38-.38-.65a4.21,4.21,0,0,1,2.14-4.06l.08-.05c.46-.16.59-.45.54-1a3.19,3.19,0,0,1,.63-2.22,1.5,1.5,0,0,0,.19-.32A10.94,10.94,0,0,1,14.1,26.8a11.24,11.24,0,0,1-3.47.8v1.6a1.66,1.66,0,0,1-1,1.82A2.56,2.56,0,0,0,8.48,32.1a2.66,2.66,0,0,1-1.86,1.14,9.15,9.15,0,0,1-4-.1,1.91,1.91,0,0,1-1.54-1.53C.89,30.33.57,29,.41,27.7.2,25.89,0,24.05,0,22.22c0-2,0-4,.1-6a4.08,4.08,0,0,1,1.53-3c.38-.33.73-.69,1.1-1a7.56,7.56,0,0,1,4-2.15,19.23,19.23,0,0,1,8.76.47A9.39,9.39,0,0,1,18,11.84l.21.14c.74-.53,1.4-1.07,2.14-1.5a3.51,3.51,0,0,1,2.84-.43,2.67,2.67,0,0,1,2,3.14c-.13.63-.3,1.25-.48,1.86a.47.47,0,0,0,.19.59,5.38,5.38,0,0,0,1,.31c.21.05.24-.13.22-.31,0-.33-.09-.65-.12-1a1.67,1.67,0,0,1,.62-1.43l2.28-2a7.17,7.17,0,0,1,2.83-1.5,2.26,2.26,0,0,1,2.28.62,6.86,6.86,0,0,1,1.32,1.79c.1.17.21.33.34.54.32-.37.62-.68.89-1a3,3,0,0,1,2.55-1.22,21.53,21.53,0,0,1,4.6.43,1.55,1.55,0,0,0,.43,0c.09,0,.23,0,.26-.12A1.24,1.24,0,0,1,45.65,10a10.27,10.27,0,0,1,2,.08A1.72,1.72,0,0,1,49,11.43c.25.88.42,1.78.62,2.66l.1.39a.67.67,0,0,0,.15-.14A8.62,8.62,0,0,1,54,11.46a20,20,0,0,1,5.6-1.35,4.51,4.51,0,0,1,4.55,2.14c.47.75.86,1.56,1.29,2.34l.18.34c.2-.18.39-.32.55-.49.53-.58,1-1.19,1.59-1.74a4.73,4.73,0,0,1,2.48-1.47,4.23,4.23,0,0,1,3.08.36,7.93,7.93,0,0,1,1.17,1,2,2,0,0,1,.23.27c.09-.19.17-.35.23-.51a3.2,3.2,0,0,1,2.45-2.07,6.81,6.81,0,0,1,4.28.15,5.82,5.82,0,0,1,2.89,2.4c.35.55.68,1.11,1,1.7l1.31-1.25a14.6,14.6,0,0,1,2.37-2,8.11,8.11,0,0,1,6.82-.79,10.22,10.22,0,0,1,4.66,3,2.36,2.36,0,0,1,.2.31l.09-.08a1.85,1.85,0,0,1,.15-.53,3.4,3.4,0,0,1,1.7-2c.21-.11.26-.21.2-.43a10,10,0,0,1-.22-1.06,1,1,0,0,0-.41-.77,1.08,1.08,0,0,1-.31-.55,2.88,2.88,0,0,1,.15-1.92,7.58,7.58,0,0,1,.65-1.23,16,16,0,0,0,1.26-2.29,10.59,10.59,0,0,1,.93-1.6,2.73,2.73,0,0,1,3-1.2,4,4,0,0,1,2,.94,2.34,2.34,0,0,0,2.79.37,4.08,4.08,0,0,1,3-.33,2.46,2.46,0,0,1,2,1.63,16.88,16.88,0,0,1,.48,1.76l.75,3a4.36,4.36,0,0,1,0,2.48,1.89,1.89,0,0,1-.89,1,3.8,3.8,0,0,0-1,1,1.26,1.26,0,0,0-.38.66c0,.19.27.38.41.57a3.48,3.48,0,0,1,.5,3.66,3.38,3.38,0,0,1-3,2.16.71.71,0,0,0-.74.58q-1.18,3.38-2.43,6.74a15.69,15.69,0,0,1-1.83,3.24,6.06,6.06,0,0,1-3.38,2.4,12.92,12.92,0,0,1-4,.54c-1.51,0-3-.13-4.51-.19a.86.86,0,0,0-.39,0,11.68,11.68,0,0,1-7.09.08,7.5,7.5,0,0,1-1.76-.78,6,6,0,0,0-5-.68c-1.24.31-2.47.69-3.72.93a17.57,17.57,0,0,1-6.22.06c-.41-.07-.83-.14-1.25-.19a.38.38,0,0,0-.3.11A4.9,4.9,0,0,1,69,33.17a3.1,3.1,0,0,1-1.66-.41A5.58,5.58,0,0,0,64,32c-.74.07-1.48.27-2.23.39a4.51,4.51,0,0,0-1.34.45,7.22,7.22,0,0,1-2.54.65,1.78,1.78,0,0,0-.39.07ZM18.66,14.21A10.86,10.86,0,0,0,18,13a5,5,0,0,0-2.89-1.77,20,20,0,0,0-6.49-.67,9.43,9.43,0,0,0-2.93.54,4.16,4.16,0,0,0-2.88,3.16,10.38,10.38,0,0,0-.21,1.94A58.26,58.26,0,0,0,3,25.48c.21,1.36.53,2.7.79,4a1.2,1.2,0,0,0,.88.91,7.25,7.25,0,0,0,3,.27A5.76,5.76,0,0,0,9,30.36a1.3,1.3,0,0,0,.87-1.61v0c-.18-.88-.37-1.74-.56-2.61-.13-.64,0-.8.58-1a1.17,1.17,0,0,1,.36-.08L12.89,25a5.93,5.93,0,0,0,3.71-1.39,5.32,5.32,0,0,0,1.75-2.69,10.85,10.85,0,0,0,.36-3.2c.33.7.7,1.52,1.12,2.31a3.24,3.24,0,0,0,1.52,1.47,6.69,6.69,0,0,0,3.21.6c.94-.08,1.88-.28,2.82-.43a2.73,2.73,0,0,1,1.91.1c.44.23.58.56.29,1a4.74,4.74,0,0,1-1,1,5.32,5.32,0,0,1-2.41.84,1.83,1.83,0,0,1-1.85-.75c-.13-.17-.19-.39-.32-.56a2.34,2.34,0,0,0-1.42-.89,2.47,2.47,0,0,0-3.29,1.21l0,.09a3.26,3.26,0,0,0,.21,3.86,8.45,8.45,0,0,0,3.22,2.32,13.43,13.43,0,0,0,6.49.84,7.57,7.57,0,0,0,3.89-1.51,5.6,5.6,0,0,0,1.61-1.78,14.55,14.55,0,0,0,1.45-5.56,4.25,4.25,0,0,1,.08-.61.29.29,0,0,1,.17.19A1.63,1.63,0,0,0,38,22.58a40.07,40.07,0,0,0,6-.19,1.52,1.52,0,0,0,1.46-1h.07a7.76,7.76,0,0,1-.11,2.84,2.13,2.13,0,0,1-1.22,1.62,8,8,0,0,1-1.59.53,1.13,1.13,0,0,1-1.42-.72,1.37,1.37,0,0,1,0-.28,1.94,1.94,0,0,1,0-.68.92.92,0,0,0-.47-1.06,3.07,3.07,0,0,0-.82-.33c-.22-.07-.47-.07-.7-.12a4.44,4.44,0,0,0-1.85,0,1.07,1.07,0,0,0-1,1A11.68,11.68,0,0,0,36.15,26a4.46,4.46,0,0,0,3.66,4.57,16.08,16.08,0,0,0,4.27.21,6.75,6.75,0,0,0,3.07-.9,3.16,3.16,0,0,0,1.63-2.09,25.48,25.48,0,0,0,.54-3,40,40,0,0,0-.38-10.26c-.17-1-.47-1.92-.72-2.88a.8.8,0,0,0-.56-.58,3.65,3.65,0,0,0-2.12,0,.56.56,0,0,0-.46.52c0,.31-.19.37-.43.34-.51-.07-1-.13-1.51-.22a16.62,16.62,0,0,0-3.85-.4,2.29,2.29,0,0,0-1.71.61A8.17,8.17,0,0,0,36,14.53a2.22,2.22,0,0,0-.1.39c-.22-.53-.41-1-.63-1.48A6.78,6.78,0,0,0,33.68,11a2,2,0,0,0-2-.52,6,6,0,0,0-2.49,1.47,1.19,1.19,0,0,0-.36,1.28,16.66,16.66,0,0,0,.62,1.61.81.81,0,0,1-.22,1.06,4.32,4.32,0,0,1-1.12.65,5,5,0,0,1-2.51.12,2.38,2.38,0,0,1-1.54-.86.72.72,0,0,1-.16-.68c.2-.62.36-1.25.54-1.88a1.82,1.82,0,0,0-1.12-2.31h0a2.75,2.75,0,0,0-1.21-.09,3.52,3.52,0,0,0-3.19,2.52A6.45,6.45,0,0,0,18.66,14.21ZM85.8,18.34a12.79,12.79,0,0,0-1.5-4.46,6.18,6.18,0,0,0-2.56-2.65,6,6,0,0,0-4.65-.12,1.94,1.94,0,0,0-1.42,1.54,7.73,7.73,0,0,1-.37,1.12c-.19.49-.41.52-.75.12-.2-.24-.37-.5-.59-.72-1.25-1.24-2-1.52-3.65-1a4.73,4.73,0,0,0-3.13,3.14,16.38,16.38,0,0,0,.07,11.56,7,7,0,0,0,1.89,3,2.23,2.23,0,0,0,1.29.61,3.09,3.09,0,0,0,2.92-1,4.54,4.54,0,0,0,.92-3.85,8.36,8.36,0,0,0-1.18-2.53c-.48-.88-1-1.75-1.42-2.65a2.66,2.66,0,0,1-.07-2c.11-.34.27-.38.49-.09.35.44.67.89,1,1.36.64,1,1.27,1.91,1.92,2.86a2.93,2.93,0,0,0,.69.67A1,1,0,0,0,77.1,23a.56.56,0,0,1,.05-.08,2.82,2.82,0,0,0,.49-.92c.4-1.48.77-3,1.15-4.46a3.62,3.62,0,0,1,.13-.47c.16-.39.45-.45.71-.13a1.86,1.86,0,0,1,.53,1.42c-.21,1.51-.45,3-.65,4.52a14.41,14.41,0,0,0-.19,2.28A4,4,0,0,0,80.89,28a1.92,1.92,0,0,0,1.73.46,3.06,3.06,0,0,0,2-1.45,6.11,6.11,0,0,0,.88-2.47,7.5,7.5,0,0,1,.14-1,5.9,5.9,0,0,0,.2,1,8.79,8.79,0,0,0,3.76,4.6,12,12,0,0,0,5.88,1.57,5,5,0,0,0,2.9-.84c.63-.44,1.25-.91,1.83-1.4a7.58,7.58,0,0,0,2.53-4.32c.2-1,0-1.28-1-1.23-1.31.06-2.62.2-3.93.31a1.11,1.11,0,0,0-.91.62,7.94,7.94,0,0,1-.55.87,1.76,1.76,0,0,1-1.71.79,6.09,6.09,0,0,1-2.29-.84,2.55,2.55,0,0,1-1.46-2.49c0-.49.19-.63.66-.56h.28a70,70,0,0,0,7.93.11,15,15,0,0,0,2-.25c.61-.12.74-.36.71-1V20A9.65,9.65,0,0,0,101,15a2.08,2.08,0,0,0-.34-.48c-.75-.71-1.45-1.48-2.26-2.12A7.73,7.73,0,0,0,87.52,13.8c-.11.14-.21.28-.31.43A8.5,8.5,0,0,0,85.8,18.34Zm-19.91,3.2h0v-.69a12.73,12.73,0,0,0-2.5-8.28,3.29,3.29,0,0,0-2.19-1.51A10,10,0,0,0,59.31,11a15.88,15.88,0,0,0-4.69,1.15,9.41,9.41,0,0,0-2.8,1.52,2.68,2.68,0,0,0-1.07,1.48,3.77,3.77,0,0,0,.36,2.51,1.69,1.69,0,0,0,.71.74,2.74,2.74,0,0,0,2.77-.28c.35-.27.65-.58,1-.87a5.17,5.17,0,0,1,2.89-1.65,1,1,0,0,1,.66.13c.49.42.93.88,1.38,1.34a2,2,0,0,1,.5,1.58,1.27,1.27,0,0,1-.25.6,1.22,1.22,0,0,1-1.66.36l-.51-.23c-.52-.22-1-.47-1.57-.67a4.13,4.13,0,0,0-3.18.15,7.25,7.25,0,0,0-3.54,3.31,4.56,4.56,0,0,0-.13,4.52A5.85,5.85,0,0,0,52.39,29a12.2,12.2,0,0,0,5.69,1.79,13.1,13.1,0,0,0,3-.14,5,5,0,0,0,3.53-3,10.44,10.44,0,0,0,.87-2.48A27.06,27.06,0,0,0,65.89,21.54Zm46.2-3.16a2.12,2.12,0,0,1-1.7,2.2,5.78,5.78,0,0,1-4-.53,2.15,2.15,0,0,1-1.26-1.9c0-.17-.08-.23-.25-.23-.68,0-.58-.07-.59.55V19a11,11,0,0,1-.4,3.22,2.57,2.57,0,0,0-.15,1.2,4.82,4.82,0,0,1-.41,2.27,11.7,11.7,0,0,1-2.24,3.68c-.19.22-.2.4,0,.57a6,6,0,0,0,5.73,1.4,4.14,4.14,0,0,0,2.59-1.63,13.84,13.84,0,0,0,1.9-3.23c.9-2.37,1.74-4.77,2.6-7.15a.6.6,0,0,0,0-.19Zm-.92-4.58a4.9,4.9,0,0,0,1.19-.11,5.63,5.63,0,0,0,2.69-1.06,2.3,2.3,0,0,0,.64-3.19,1.84,1.84,0,0,0-.17-.22,4.82,4.82,0,0,0-1.74-1.43,8.92,8.92,0,0,0-5.51-.92A5.31,5.31,0,0,0,105.46,8a2.24,2.24,0,0,0-.47,3.13l0,0a4.5,4.5,0,0,0,.95,1,8.6,8.6,0,0,0,5.24,1.61Zm3.09,2.3a2.68,2.68,0,0,1,.44.45.58.58,0,0,1-.22.73.63.63,0,0,1-.77-.13.62.62,0,0,1,0-.77c.07-.09.18-.2.17-.3,0-.61-.06-1.21-.11-1.82a1.39,1.39,0,0,0-.07-.5,4,4,0,0,1-2.14.63.74.74,0,0,1,0-.21V14a9.17,9.17,0,0,1-5.41-1.46l-.08.07.31.56-.38-.23c-.08.22-.15.4-.21.59v.17c.49.14.49.14.47.66v.06c0,.59,0,.59-.62.55-.15,0-.26,0-.28.18s0,.5-.15.59-.41,0-.63,0h-.19c-.22,0-.32-.09-.29-.32a3.12,3.12,0,0,0,0-.53h-.55a.25.25,0,0,1-.27-.31,4.7,4.7,0,0,0,0-.65c0-.21.1-.3.31-.28a5,5,0,0,0,.55,0,1.84,1.84,0,0,1,0-.54c0-.17.09-.3.31-.28H105c.14-.37,0-.49-.42-.52a.48.48,0,0,0,.48-.71c-.32-.69-.59-.81-1.33-.6l-.27.09a3.41,3.41,0,0,0,1.42,6.61.41.41,0,0,0,.27-.17c.42-1,.9-1.2,1.9-.9a9.32,9.32,0,0,0,3.27.5,1.73,1.73,0,0,1,1.52.68,3.31,3.31,0,0,0,2.52,1.1,3.42,3.42,0,0,0,1.87-6.27c-.44-.29-.43-.29-.82.07-.12.1-.26.17-.39.26a.79.79,0,0,0-.2.94.62.62,0,0,1-.16.86l0,0c-.08,0-.18.12-.2.21a4.86,4.86,0,0,1-.12,1.09Zm-2-9.15a11.37,11.37,0,0,1-.17-1.53,3.62,3.62,0,0,1,1.42-3.07,1.91,1.91,0,0,1,2.7.3,1,1,0,0,1,.08.11A3.37,3.37,0,0,1,117,5a3.69,3.69,0,0,1-1.84,3.53v.08a2.71,2.71,0,0,1,.73,3.57,9.82,9.82,0,0,1,2.44-1.38,1.12,1.12,0,0,0,.47-.47A3.2,3.2,0,0,0,119,8.07c-.25-1-.51-2-.76-3-.2-.76-.34-1.54-.6-2.28a2.26,2.26,0,0,0-1.87-1.5,3.79,3.79,0,0,0-2.54.35,2.6,2.6,0,0,1-3-.34,3.72,3.72,0,0,0-2-.94,2.43,2.43,0,0,0-2.61,1,8.27,8.27,0,0,0-.89,1.42,18.65,18.65,0,0,1-1.52,2.77,3.83,3.83,0,0,0-.72,1.74,1.68,1.68,0,0,0,.79,1.89,3.75,3.75,0,0,1,.71.61c.19.16.36.33.6.55a2.85,2.85,0,0,1,1.68-3l-.08-.1c-1.38-1.22-1.3-4,0-5.38A2,2,0,0,1,109,1.5a1.94,1.94,0,0,1,.67.92,4.16,4.16,0,0,1-.14,3.89l-.16.29Zm-2.91,13.57a2.46,2.46,0,0,0,.73-.08A2.08,2.08,0,0,0,111.89,19a1.28,1.28,0,0,0-.91-1.57,1.24,1.24,0,0,0-.33,0c-.79,0-1.57-.09-2.35-.19a11.73,11.73,0,0,1-1.44-.38,1.08,1.08,0,0,0-1.39.66l0,.09a1.78,1.78,0,0,0-.11.76A2.08,2.08,0,0,0,106.67,20a6.61,6.61,0,0,0,2.66.59ZM116.77,5a3.29,3.29,0,0,0-.43-1.66,1.82,1.82,0,0,0-2.39-1,1.75,1.75,0,0,0-.77.63,3.88,3.88,0,0,0-.66,4,.73.73,0,0,0,.33.32c.51.27,1,.5,1.54.79s.6.32,1.08-.06a4.34,4.34,0,0,0,.52-.53A4,4,0,0,0,116.77,5Zm-6.88-.78a3.48,3.48,0,0,0-.4-1.71,1.81,1.81,0,0,0-3.18-.38,3.84,3.84,0,0,0-.88,3.22,2.74,2.74,0,0,0,.9,1.79.57.57,0,0,0,.38.09c.69-.14,1.39-.29,2.08-.47a.74.74,0,0,0,.42-.26A3.87,3.87,0,0,0,109.89,4.17ZM75.83,28.09A2.91,2.91,0,0,0,76.6,28c.42-.07.39-.08.35-.5-.07-.65-.1-1.31-.14-2v-.71a2.85,2.85,0,0,0-.14-.5,2.37,2.37,0,0,0-.39.32c-.24.3-.5.6-.77.88a1,1,0,0,0-.36.71,8.64,8.64,0,0,1-.09,1C75,28.08,75,28.08,75.83,28.09ZM13.89,32H14a1.14,1.14,0,0,1,.18-.25,12.43,12.43,0,0,1,1-1.16c.37-.34.81-.6,1.22-.91.07-.06.16-.19.14-.25-.13-.34-.29-.67-.45-1a4.1,4.1,0,0,0-2.2,2.95A2.15,2.15,0,0,0,13.89,32Zm89.34-14.42c.12,1.12.24,2.22.36,3.32a1,1,0,0,1-.62,1.19l-.36.2.86.38a2.63,2.63,0,0,0,.15-.35,13.5,13.5,0,0,0,.43-4.33.25.25,0,0,0-.15-.19C103.68,17.71,103.45,17.65,103.23,17.58Zm11.46-4.49a4.22,4.22,0,0,1-.45.18c-.25.07-.3.21-.27.46.06.47.07,1,.1,1.42v.35h.07Zm-9.42,1.31h.09l.6-1.86a.19.19,0,0,0,0-.18c-.16-.14-.34-.27-.56-.44Zm-.84-3.77L103.3,9.46l-.08,0c.08.39.16.78.25,1.17a.24.24,0,0,0,.15.13Zm-62.11,15c.35,0,.57-.14.64-.4s0-.34-.27-.31a1.54,1.54,0,0,0-.43.06.42.42,0,0,0-.32.24C41.94,25.29,42.05,25.63,42.32,25.63Zm74.27-13.08.76-1.14v-.06l-1.31.83ZM95,24.44a2.13,2.13,0,0,0-1.41,0C94.28,25,94.83,24.89,95,24.44Z" />
                            <path
                                d="M11.08,15a10.69,10.69,0,0,1,1.38.34,1.61,1.61,0,0,1,1.13,1.7A3.15,3.15,0,0,1,12,20a2.57,2.57,0,0,1-3.43-1.2,2.87,2.87,0,0,1-.15-.37,2.68,2.68,0,0,1,1.81-3.32A2.53,2.53,0,0,1,11.08,15Zm-.17,4a1.45,1.45,0,0,0-1.63-1.26h0a.29.29,0,0,0-.14.26,2,2,0,0,0,1.23,1.38c.39.15.52.05.52-.38Z" />
                            <path
                                d="M44.44,16.46a7.78,7.78,0,0,1-.18.94,1.66,1.66,0,0,1-1.51,1.31,2.83,2.83,0,0,1-1.55-.16,1.49,1.49,0,0,1-.92-1.6,9.45,9.45,0,0,1,.24-1.31,1.34,1.34,0,0,1,1.17-1.13A6.54,6.54,0,0,1,43,14.4a1.26,1.26,0,0,1,1.19,1A9.07,9.07,0,0,1,44.44,16.46Zm-3.55.64a1.15,1.15,0,0,0,.62,1c.21.08.33,0,.24-.2a7,7,0,0,0-.44-.91.33.33,0,0,0-.27-.12A.43.43,0,0,0,40.89,17.1Z" />
                            <path
                                d="M94.71,18.26a12.75,12.75,0,0,1-1.51-.09A4.81,4.81,0,0,1,92,17.65c-.26-.13-.25-.38-.12-.62a2.89,2.89,0,0,1,3.21-1.28A4.81,4.81,0,0,1,97,17c.35.36.3.59-.13.86a3.33,3.33,0,0,1-1.7.37h-.47Z" />
                            <path
                                d="M58.48,26.33a4.39,4.39,0,0,1-2.3-.74,1.48,1.48,0,0,1-.3-.26.9.9,0,0,1-.1-1.27l.11-.11a1.6,1.6,0,0,1,2.18-.36,3.88,3.88,0,0,1,1.38,1.23,1,1,0,0,1,.12,1.1c-.2.39-.55.43-.92.45Z" />
                            <path
                                d="M116.43,15.7a.55.55,0,0,1-.53.57h-.07a.58.58,0,0,1-.56-.58h0a.58.58,0,0,1,.58-.6h0a.57.57,0,0,1,.57.58Z" />
                            <path
                                d="M112.78,16a.56.56,0,0,1-.58-.52v-.06a.57.57,0,0,1,.54-.59h.05a.58.58,0,0,1,.58.57.58.58,0,0,1-.55.59Z" />
                            <path
                                d="M108.43,14.63c.11.09.22.13.25.21a.87.87,0,0,1,0,.28c-.32.21-.66.41-1,.6,0,0-.21,0-.25-.09s-.07-.27,0-.3A6.74,6.74,0,0,1,108.43,14.63Z" />
                            <path
                                d="M109.41,16c-.11-.11-.23-.16-.24-.23a.43.43,0,0,1,.09-.33,5.16,5.16,0,0,1,.88-.51.31.31,0,0,1,.32.06c.06.06.07.27,0,.3C110.14,15.56,109.78,15.78,109.41,16Z" />
                            <path d="M113.31,7.18a.72.72,0,1,1,0-1.44h0a.72.72,0,0,1,0,1.44Z" />
                            <path d="M109.27,5.87a.72.72,0,0,1-.69.73h0a.73.73,0,0,1-.64-.81.68.68,0,1,1,1.36.08Z" />
                        </g>
                    </g>
                </g>
            </g>
        </svg>

    </symbol>

    <!-- SQL -->
    <symbol id="bw-tech-sql" viewBox="0 0 24 24">

        <svg className="sql" xmlns="http://www.w3.org/2000/svg" viewBox="0 0 23 29">
            <g id="Layer_2" data-name="Layer 2">
                <g id="Layer_1-2" data-name="Layer 1">
                    <path
                        d="M9.28,21.32a2,2,0,0,0-.53-.27A5.36,5.36,0,0,0,8,20.87a4.36,4.36,0,0,1-.55-.14.92.92,0,0,1-.35-.22A.5.5,0,0,1,7,20.16a.46.46,0,0,1,.11-.3.66.66,0,0,1,.31-.21,1.3,1.3,0,0,1,.51-.08,1.43,1.43,0,0,1,.39.06l.4.14A1.56,1.56,0,0,1,9,20a.33.33,0,0,0,.19.06.38.38,0,0,0,.28-.12.41.41,0,0,0,.12-.28.45.45,0,0,0-.21-.37,1.89,1.89,0,0,0-.63-.35,2.55,2.55,0,0,0-.84-.14,2.35,2.35,0,0,0-.89.17,1.54,1.54,0,0,0-.63.49,1.28,1.28,0,0,0-.23.78,1.53,1.53,0,0,0,.09.54,1.25,1.25,0,0,0,.3.42,1.58,1.58,0,0,0,.47.3,3.85,3.85,0,0,0,.67.17,3.09,3.09,0,0,1,.66.15.93.93,0,0,1,.38.25.52.52,0,0,1,.13.36.42.42,0,0,1-.13.31,1.1,1.1,0,0,1-.35.22A1.51,1.51,0,0,1,7.9,23a1.76,1.76,0,0,1-.65-.11,2.85,2.85,0,0,1-.53-.33.35.35,0,0,0-.23-.09.43.43,0,0,0-.41.41.53.53,0,0,0,0,.2.55.55,0,0,0,.14.17,2,2,0,0,0,.75.43,3,3,0,0,0,.88.12,2.21,2.21,0,0,0,.89-.17,1.68,1.68,0,0,0,.66-.51,1.22,1.22,0,0,0,.25-.78,1.71,1.71,0,0,0-.1-.6A1.12,1.12,0,0,0,9.28,21.32Z" />
                    <path
                        d="M15,23.93a.37.37,0,0,0-.21.08l-.21.16a1,1,0,0,1-.23.14.73.73,0,0,1-.32.06,1,1,0,0,1-.4-.07l-.35-.16A2,2,0,0,0,13,24a2.16,2.16,0,0,0-.27,0l.49-.18a2,2,0,0,0,.41-.13,2.25,2.25,0,0,0,.75-.54,2.46,2.46,0,0,0,.5-.8,2.88,2.88,0,0,0,.17-1,2.84,2.84,0,0,0-.17-1,2.36,2.36,0,0,0-.5-.8,2.43,2.43,0,0,0-.75-.55,2.32,2.32,0,0,0-1-.19,2.27,2.27,0,0,0-1,.19,2.43,2.43,0,0,0-.75.55,2.52,2.52,0,0,0-.5.8,2.84,2.84,0,0,0-.17,1,2.88,2.88,0,0,0,.17,1,2.64,2.64,0,0,0,.5.8,2.25,2.25,0,0,0,.75.54,2.16,2.16,0,0,0,.43.14l-.7.26a.35.35,0,0,0-.24.36.42.42,0,0,0,.12.29.37.37,0,0,0,.29.13.7.7,0,0,0,.27,0l.17-.09a.43.43,0,0,1,.21-.05.8.8,0,0,1,.36.08l.32.19a2.93,2.93,0,0,0,.42.18,2.61,2.61,0,0,0,.69.08,1.78,1.78,0,0,0,.44-.06,3.8,3.8,0,0,0,.47-.18,1.29,1.29,0,0,0,.37-.26.42.42,0,0,0,.14-.3.35.35,0,0,0-.13-.28A.39.39,0,0,0,15,23.93Zm-3.69-1.79a2.12,2.12,0,0,1,0-1.71,1.6,1.6,0,0,1,.52-.6,1.31,1.31,0,0,1,.76-.22,1.34,1.34,0,0,1,.77.22,1.49,1.49,0,0,1,.51.6,2,2,0,0,1,0,1.71,1.49,1.49,0,0,1-.51.6,1.34,1.34,0,0,1-.77.23,1.31,1.31,0,0,1-.76-.23A1.6,1.6,0,0,1,11.35,22.14Z" />
                    <path
                        d="M18.49,22.92H16.67V19.26a.42.42,0,0,0-.13-.3.46.46,0,0,0-.62,0,.38.38,0,0,0-.13.3v4a.41.41,0,0,0,.12.3.4.4,0,0,0,.31.13h2.27a.43.43,0,0,0,.31-.12.37.37,0,0,0,.12-.29.41.41,0,0,0-.12-.3A.47.47,0,0,0,18.49,22.92Z" />
                    <path
                        d="M21.47,16H21V6.58a3,3,0,0,0-.23-1.13.44.44,0,0,0-.11-.27A1.76,1.76,0,0,0,20.52,5a1.29,1.29,0,0,0-.09-.16,2.57,2.57,0,0,0-.34-.4L16.61.91a2.85,2.85,0,0,0-.9-.62h0A3.09,3.09,0,0,0,14.42,0H1.72A1.72,1.72,0,0,0,0,1.72V27.28A1.72,1.72,0,0,0,1.72,29H19.28A1.72,1.72,0,0,0,21,27.28V27h.47A1.54,1.54,0,0,0,23,25.47V17.53A1.54,1.54,0,0,0,21.47,16ZM19.29,5H16.5a.5.5,0,0,1-.5-.5V1.71ZM20,27.28a.72.72,0,0,1-.72.72H1.72A.72.72,0,0,1,1,27.28V1.72A.72.72,0,0,1,1.72,1h12.7a1.91,1.91,0,0,1,.58.1V4.5A1.5,1.5,0,0,0,16.5,6h3.41a2.26,2.26,0,0,1,.09.58V16H11.93a.58.58,0,0,1-.38-.15l-.4-.4A1.51,1.51,0,0,0,10.07,15H3.53A1.54,1.54,0,0,0,2,16.53v8.94A1.54,1.54,0,0,0,3.53,27H20Zm2-1.81a.53.53,0,0,1-.53.53H3.53A.53.53,0,0,1,3,25.47V16.53A.53.53,0,0,1,3.53,16h6.54a.58.58,0,0,1,.38.15l.4.4a1.5,1.5,0,0,0,1.08.45h9.54a.53.53,0,0,1,.53.53Z" />
                    <path
                        d="M7.94,14c.75,0,4.5-.07,4.5-1.5v-9c0-1.43-3.75-1.5-4.5-1.5s-4.5.07-4.5,1.5v9C3.44,13.93,7.19,14,7.94,14Zm3.5-1.59a7.34,7.34,0,0,1-3.5.59,7.3,7.3,0,0,1-3.5-.59V10.52l.08,0,.31.1.13,0a6.8,6.8,0,0,0,.92.18l.14,0,.34,0h.13l.43,0h0l.39,0H8.57L9,11H9l.43,0h.12l.35,0,.14,0a7.12,7.12,0,0,0,.92-.18l.13,0,.31-.1.08,0v1.89ZM4.83,4.65l.13,0a6.8,6.8,0,0,0,.92.18l.14,0,.34,0h.13l.42,0h0l.39,0H8.57L9,5H9l.43,0h.12l.35,0,.14,0a7.12,7.12,0,0,0,.92-.18l.13,0,.31-.1.08,0V6.41s0,0,0,0l-.09,0-.1,0-.13,0-.16,0-.15.05-.23,0-.17,0-.3,0-.19,0-.35,0-.22,0L8.88,7H8.66L7.94,7,7.22,7H7l-.43,0-.21,0L6,6.87l-.19,0-.29,0-.18,0-.22,0L5,6.65,4.8,6.59a.43.43,0,0,1-.12,0l-.1,0-.09,0,0,0V4.52l.08,0Zm0,3,.13,0a6.8,6.8,0,0,0,.92.18l.14,0,.34,0h.13l.42,0h0l.39,0H8.57L9,8H9l.43,0h.12l.35,0,.14,0a7.12,7.12,0,0,0,.92-.18l.13,0,.31-.1.08,0V9.41l0,0-.09.05-.1,0-.13.05-.16.05-.15,0-.23.05-.17,0-.29.06-.2,0-.35,0-.21,0-.43,0H8.66l-.72,0-.72,0H7l-.43,0-.21,0L6,9.87l-.19,0-.29-.06-.18,0-.22-.05L5,9.64,4.8,9.59a.43.43,0,0,1-.12-.05l-.1,0-.09-.06,0,0V7.52l.08,0ZM11.3,3.5l-.22.09h0l-.29.09-.08,0-.29.07-.13,0L10,3.85l-.17,0-.36,0-.2,0C9.11,4,9,4,8.82,4l-.2,0H7.94L7.25,4h-.2l-.42,0-.2,0-.35,0-.17,0L5.59,3.8l-.13,0L5.17,3.7l-.08,0a2.76,2.76,0,0,1-.52-.18A8.71,8.71,0,0,1,7.94,3,8.61,8.61,0,0,1,11.3,3.5Z" />
                    <path d="M9.8,11.32,9,11.4a.5.5,0,0,0-.44.55.49.49,0,0,0,.49.45h.06l.79-.08a.5.5,0,0,0-.11-1Z" />
                    <path d="M6.86,11.4l-.79-.08a.5.5,0,0,0-.55.45.52.52,0,0,0,.45.55l.79.08h0a.5.5,0,0,0,.05-1Z" />
                    <path d="M9.06,9.41h0l.79-.08a.5.5,0,1,0-.1-1L9,8.42a.5.5,0,0,0,.05,1Z" />
                    <path
                        d="M6,9.33l.79.08h0A.51.51,0,0,0,7.31,9a.49.49,0,0,0-.45-.54l-.79-.08a.5.5,0,0,0-.55.44A.51.51,0,0,0,6,9.33Z" />
                    <path d="M9.06,6.43h0l.79-.08a.5.5,0,1,0-.1-1L9,5.43A.5.5,0,0,0,8.57,6,.49.49,0,0,0,9.06,6.43Z" />
                    <path d="M6,6.34l.79.08h0A.51.51,0,0,0,7.31,6a.5.5,0,0,0-.45-.55l-.79-.08a.5.5,0,1,0-.1,1Z" />
                </g>
            </g>
        </svg>

    </symbol>

    <!-- OpenCV -->
    <symbol id="bw-tech-opencv" viewBox="0 0 24 24">

        <svg className="opencv" xmlns="http://www.w3.org/2000/svg" viewBox="0 0 34.82 32.45">
            <g id="Layer_2" data-name="Layer 2">
                <g id="Layer_1-2" data-name="Layer 1">
                    <path
                        d="M34.82,25.77a23.73,23.73,0,0,1-1.7,3.38,8.23,8.23,0,0,1-8.89,3,8.38,8.38,0,0,1-6-7,8.18,8.18,0,0,1,3.1-7.69c.66-.55,1.12-.64,1.53.24a9.87,9.87,0,0,0,.81,1.37c.76,1.09,1.26,2,.07,3.31s-.59,3.26.69,4.26a3.25,3.25,0,0,0,4.43-.3A3.15,3.15,0,0,0,29,21.94a1.37,1.37,0,0,1-.15-2.07,20.14,20.14,0,0,0,1.34-2.29c.36-.7.75-.71,1.32-.26a8.63,8.63,0,0,1,2.91,4c.13.37.27.73.4,1.1Z" />
                    <path
                        d="M21.44,15.71c-.79-1.36-1.56-2.54-2.16-3.81-.15-.3.18-.94.46-1.31a3.29,3.29,0,0,0,.44-3.67,3,3,0,0,0-3-1.75A3,3,0,0,0,14.31,7a3,3,0,0,0,.5,3.45,1.39,1.39,0,0,1,.15,2.1A27.46,27.46,0,0,0,13.5,15c-.3.53-.62.55-1.12.23A8.56,8.56,0,0,1,9.15,6.16,8.5,8.5,0,0,1,16.48,0a8.4,8.4,0,0,1,9.21,8.57A8.31,8.31,0,0,1,21.44,15.71Z" />
                    <path
                        d="M8.25,32.39A8.13,8.13,0,0,1,0,24,8.15,8.15,0,0,1,8.29,15.8a15.22,15.22,0,0,1,3.11.53c.83.19,1.09.67.53,1.46A11.39,11.39,0,0,0,11,19.33c-.55,1.09-1.08,1.85-2.63,1.48s-3,1.09-3.32,2.67a3.32,3.32,0,0,0,2,3.68,3.24,3.24,0,0,0,4-1.23,1.71,1.71,0,0,0,.33-.66c.15-1.37,1-1.56,2.17-1.44a14,14,0,0,0,1.59,0c1.65,0,1.66,0,1.4,1.67C15.94,29.4,12.14,32.69,8.25,32.39Z" />
                </g>
            </g>
        </svg>

    </symbol>

    <!-- SolodWorks -->
    <symbol id="bw-tech-solidworks" viewBox="0 0 24 24">

        <svg className="solidworks" xmlns="http://www.w3.org/2000/svg" viewBox="0 0 32.35 32.02">
            <g id="Layer_2" data-name="Layer 2">
                <g id="Layer_1-2" data-name="Layer 1">
                    <path
                        d="M32.35,3.77c-.09,1.37-.19,2.73-.28,4.1l-.18,2.84c-.07,1.1-.15,2.19-.22,3.29l-.18,2.8c-.07,1.12-.15,2.24-.22,3.36l-.18,2.73c0,.47-.05.95-.1,1.43a.35.35,0,0,1-.19.24c-.85.45-1.71.88-2.57,1.32L19.41,30.4,16.35,32A.37.37,0,0,1,16,32l-3.31-1.69L7.46,27.6l-5.93-3a.31.31,0,0,1-.19-.28l-.27-4.17C1,19,.92,17.82.85,16.68c-.09-1.45-.19-2.9-.28-4.35S.38,9.45.28,8L0,4c0-.52,0-.53.48-.64L6.23,2.11l9-1.94c.13,0,.26,0,.38-.08a2.46,2.46,0,0,1,1.37,0c1.6.36,3.21.7,4.81,1l5,1.1c1.79.39,3.58.79,5.37,1.16C32.36,3.48,32.36,3.6,32.35,3.77ZM13.07,16.12l.07,0c-.1-.46-.18-.91-.29-1.36a6.53,6.53,0,0,0-2.64-3.85,11,11,0,0,0-2.7-1.39,5.53,5.53,0,0,0-2.19-.44,2.14,2.14,0,0,0-1.91,1.12,3.85,3.85,0,0,0-.32,2.56A6.5,6.5,0,0,0,5,16.2a16.36,16.36,0,0,0,2.56,2.13,9.69,9.69,0,0,1,1.82,1.5,2.22,2.22,0,0,1,.61,1.58.92.92,0,0,1-1.07.91,2.76,2.76,0,0,1-1.56-.75,4,4,0,0,1-1.23-2.63.27.27,0,0,0-.21-.27l-2.41-.83-.88-.29a2.27,2.27,0,0,0,0,.28,9.18,9.18,0,0,0,.71,2.72,7.52,7.52,0,0,0,1,1.77,7.68,7.68,0,0,0,2.29,1.87A10.78,10.78,0,0,0,10,25.51a3.16,3.16,0,0,0,1.8-.14,2.72,2.72,0,0,0,1.55-2,5.41,5.41,0,0,0,0-2.56,6.4,6.4,0,0,0-1.78-3.17,22.18,22.18,0,0,0-2-1.74c-.8-.63-1.65-1.21-2.48-1.82a1.75,1.75,0,0,1-.66-1,.76.76,0,0,1,.8-1,2.83,2.83,0,0,1,1.42.69,3.22,3.22,0,0,1,1,1.91.39.39,0,0,0,.28.33c.75.25,1.49.52,2.23.78Zm17.8-7.87-.16,0-2.25.85a.31.31,0,0,0-.2.29c-.1.82-.21,1.63-.31,2.45l-.51,3.95c0,.24-.06.48-.1.72h-.07l-1.4-6.42-.27.1c-.69.26-1.37.53-2.06.78a.44.44,0,0,0-.33.39c-.41,2.49-.84,5-1.27,7.45a1,1,0,0,1-.05.16.29.29,0,0,1-.08-.18c-.18-1.26-.35-2.52-.53-3.78-.13-.93-.26-1.87-.38-2.8,0-.17-.09-.2-.24-.14l-2,.77c-.5.19-.41.09-.33.56q.57,3.65,1.17,7.29c.25,1.58.52,3.16.78,4.74,0,.23.06.24.26.14l2.21-1.13a.49.49,0,0,0,.31-.42c.15-.94.31-1.88.48-2.81.32-1.89.65-3.77,1-5.66a.69.69,0,0,1,.05-.13h.05l1.58,7.24.18-.07c.77-.39,1.53-.79,2.3-1.17a.4.4,0,0,0,.25-.35l.39-2.6c.17-1.19.35-2.37.53-3.56.28-1.86.57-3.72.85-5.57C30.75,9,30.81,8.64,30.87,8.25Z" />
                </g>
            </g>
        </svg>

    </symbol>

    <!-- CATIA -->
    <symbol id="bw-tech-catia" viewBox="0 0 24 24">

        <svg className="catia" xmlns="http://www.w3.org/2000/svg" viewBox="0 0 26.78 32.71">
            <g id="Layer_2" data-name="Layer 2">
                <g id="Layer_1-2" data-name="Layer 1">
                    <path
                        d="M6.85,13.75c-.55,0-1.1,0-1.65,0a2.08,2.08,0,0,1-.79-.12c-.18-.07-.42-.26-.44-.42a.6.6,0,0,1,.37-.48A22.16,22.16,0,0,1,7.09,12a13,13,0,0,1,5.34.13,7.43,7.43,0,0,1,2,.78,2.27,2.27,0,0,1,1,3,9.7,9.7,0,0,1-1.84,2.95,19.34,19.34,0,0,1-7.42,5c-1.25.51-2.56.87-3.85,1.27a2.59,2.59,0,0,1-.79.05C1,25.17.85,25,1,24.57a11.92,11.92,0,0,1,.64-1.52A48.75,48.75,0,0,1,6,16.21a10.37,10.37,0,0,1,.88-1A1.1,1.1,0,0,1,7.37,15c.36-.08.59.13.52.49a4,4,0,0,1-.38,1c-.71,1.3-1.45,2.59-2.16,3.9A6.32,6.32,0,0,0,5,21.49c-.1.35,0,.51.39.43a6.09,6.09,0,0,0,1.36-.47,12.72,12.72,0,0,0,5.22-4.39,3.85,3.85,0,0,0,.47-1.1,1.18,1.18,0,0,0-.74-1.54,11.19,11.19,0,0,0-2.28-.57c-.83-.11-1.68-.1-2.52-.14ZM4.18,13v.21a3,3,0,0,0,.42,0c1.66.08,3.29-.36,5-.19a10.3,10.3,0,0,1,2.7.56,2.05,2.05,0,0,1,1.28,1.13c.08.23.24.25.4.09.34-.35.66-.72,1-1.1a4.66,4.66,0,0,0-2.43-1.34A14.87,14.87,0,0,0,6,12.49C5.37,12.62,4.78,12.82,4.18,13Z" />
                    <path
                        d="M19.41,22.61c-1.7-.19-3.4-.37-5.1-.58a2,2,0,0,1-.79-.26.63.63,0,0,1-.3-.49.64.64,0,0,1,.42-.41,3.39,3.39,0,0,1,.91-.13c1.25-.06,2.51-.09,3.76-.18a23.19,23.19,0,0,0,2.78-.33c.86-.17,1.1-.69.65-1.45a22.64,22.64,0,0,0-1.45-2l-3.07-3.95-.07-.11a2.45,2.45,0,0,1,1.32-3.81,8.17,8.17,0,0,1,3.82-.53c1.07.1,2.15.24,3.22.41a3,3,0,0,1,1,.41.64.64,0,0,1,.24.5c0,.12-.25.28-.41.31-.49.08-1,.13-1.47.17-1.32.09-2.65.12-4,.25-1,.1-1.31.72-.87,1.56a11.83,11.83,0,0,0,1.27,1.79c.94,1.16,1.92,2.27,2.84,3.44a3.8,3.8,0,0,1,1,2.24,2.37,2.37,0,0,1-1.7,2.37,12.16,12.16,0,0,1-2.33.55,16.38,16.38,0,0,1-1.72.13Zm.63-7c.22-.45.39-.8.57-1.14a.7.7,0,0,0-.13-.88c-.24-.26-.43-.57-.65-.85a1.22,1.22,0,0,0-.23-.27A1.63,1.63,0,0,1,19,11c.07-.62.53-.89,1.07-1.06a3.34,3.34,0,0,1,.43-.1c.68,0,1.36-.09,2-.16.14,0,.36-.11.4-.23a.55.55,0,0,0-.5-.76,8.31,8.31,0,0,0-4.23.7,1.93,1.93,0,0,0-1,2.83,7.06,7.06,0,0,0,1,1.44C18.77,14.27,19.38,14.89,20,15.62Z" />
                    <path
                        d="M11.36,1.8c-.39,0-.78,0-1.16-.07s-.63-.14-.59-.47a.77.77,0,0,1,.48-.5A20.87,20.87,0,0,1,12.55.19a11.6,11.6,0,0,1,4.51.06,7.47,7.47,0,0,1,2,.77A2,2,0,0,1,20,3.3,5.67,5.67,0,0,1,18.57,6,19.65,19.65,0,0,1,12,10.72a2.5,2.5,0,0,1-.88.27.7.7,0,0,1-.57-.2.69.69,0,0,1,.16-.6c.35-.36.75-.68,1.14-1,1.17-1,2.37-1.95,3.51-3a12.14,12.14,0,0,0,1.33-1.6,2.31,2.31,0,0,0,.28-.48c.4-.88.21-1.45-.71-1.72a19.06,19.06,0,0,0-2.71-.52c-.71-.1-1.44-.08-2.16-.11Zm-1.5-.66,0,.2c2.3,0,4.61-.41,6.92.12C16.52,1,16.17.4,15.63.36a12.77,12.77,0,0,0-5.35.58A3.23,3.23,0,0,0,9.86,1.14Z" />
                    <path
                        d="M23.39,31.28h-1a.38.38,0,0,0-.44.36,1.33,1.33,0,0,0-.05.19c-.18.85-.29.92-1.16.8-.29,0-.4-.18-.34-.46.18-.83.35-1.65.54-2.48a2.38,2.38,0,0,1,2.15-1.92,5.27,5.27,0,0,1,2.27,0,1.37,1.37,0,0,1,1.16,1.59A26.61,26.61,0,0,1,26,32.31a.48.48,0,0,1-.32.3c-.91.23-1.15,0-1-.87.08-.38-.05-.49-.4-.46s-.59,0-.88,0Zm.17-.9h.93c.27,0,.53,0,.63-.35.16-.61.09-1-.25-1.24A1.83,1.83,0,0,0,22.2,30c0,.25,0,.36.28.35Z" />
                    <path
                        d="M8.81,31.28h-1a.39.39,0,0,0-.46.39.8.8,0,0,1,0,.15c-.18.84-.32.94-1.16.81-.25,0-.38-.17-.33-.41.23-1,.45-2.06.74-3.07a2,2,0,0,1,1.45-1.28,5,5,0,0,1,2.81,0A1.28,1.28,0,0,1,12,29.39c-.11,1-.35,1.94-.54,2.91-.06.28-.28.33-.53.34-1,0-1,0-.78-.9.09-.41.06-.45-.38-.46Zm.62-2.65A1.56,1.56,0,0,0,7.65,30c-.06.29,0,.43.32.41.72,0,1.44,0,2.16-.08a.52.52,0,0,0,.37-.17,1,1,0,0,0-.75-1.57Z" />
                    <path
                        d="M3.4,32.67c-.59,0-1.2,0-1.79-.12A1.72,1.72,0,0,1,0,30.35,2.83,2.83,0,0,1,3,27.8c.82,0,1.63-.05,2.45-.06.21,0,.49-.07.51.28a.57.57,0,0,1-.53.67c-.66,0-1.31,0-2,0a1.75,1.75,0,0,0-1.92,1.62,1,1,0,0,0,1.09,1.34h2c.29,0,.58,0,.59.43s-.16.53-.62.54H3.41Z" />
                    <path
                        d="M15.63,27.73H18c.23,0,.52,0,.52.32s-.12.61-.49.62c-.54,0-1.07,0-1.61,0s-.59.12-.67.54c-.16.89-.36,1.78-.56,2.67a1,1,0,0,1-1.46.68.53.53,0,0,1-.1-.44c.19-1,.41-1.94.61-2.91.11-.52.09-.54-.46-.54-.28,0-.56,0-.84,0s-.49.05-.51-.3a.58.58,0,0,1,.51-.65,8.62,8.62,0,0,1,.88,0Z" />
                    <path
                        d="M18.53,32.63h-.36c-.23,0-.34-.13-.29-.37.21-1,.42-2.07.67-3.09a.52.52,0,0,1,.38-.31c1.21,0,1.13-.09.89,1-.16.7-.3,1.41-.45,2.12S19.21,32.64,18.53,32.63Z" />
                    <path
                        d="M19.37,28.71h-.2c-.22,0-.48,0-.48-.33s.19-.63.51-.63a1.75,1.75,0,0,1,.4,0c.25,0,.58-.05.56.38s-.16.53-.62.54Z" />
                </g>
            </g>
        </svg>

    </symbol>

    <!-- Inventor -->
    <symbol id="bw-tech-inventor" viewBox="0 0 24 24">

        <svg className="inventor" xmlns="http://www.w3.org/2000/svg" viewBox="0 0 19.5 32.66">
            <g id="Layer_2" data-name="Layer 2">
                <g id="Layer_1-2" data-name="Layer 1">
                    <path
                        d="M.12,0C.88.08,1.59.13,2.3.22A32.09,32.09,0,0,0,11,.14c.36-.06.74-.09,1.11-.13s.41,0,.41.34c0,1,0,2,0,2.95a.8.8,0,0,1-.14.38c-.15.27-.35.52-.48.8a1.23,1.23,0,0,1-1.25.79c-.92,0-1.37.58-1.37,1.53q0,6.5,0,13c0,.41-.24.79.05,1.25a1.43,1.43,0,0,0,1.08.75l.84.06a1.53,1.53,0,0,1,1.56,1.57c0,.76,0,1.52,0,2.28,0,.59,0,.6-.6.54-1.2-.1-2.39-.26-3.58-.29-1.72,0-3.45,0-5.17.08-1.06,0-2.11.17-3.16.25C.19,26.27,0,26.11,0,26,0,25,0,24,0,22.94c0-.42.77-1.07,1.19-1.09a10.17,10.17,0,0,0,1.11-.09c.73-.13.9-.33,1-1.05.07-1.29.17-2.58.2-3.86,0-2.65.06-5.29.08-7.94,0-.77,0-1.55-.06-2.33A1.26,1.26,0,0,0,2.17,5.3c-.38,0-.94.09-1.1-.12A3.89,3.89,0,0,1,.16,3.43,27.8,27.8,0,0,1,.12,0ZM12,.35A11,11,0,0,1,6.46,1.87,11.61,11.61,0,0,1,.87.51C3.67,2.55,9.34,2.59,12,.35ZM7.36,15.69l.13,0L4.15,6.36,4,6.41Z" />
                    <path
                        d="M11.38,30.1c0-.65,0-1.31,0-2,0-.13.17-.37.27-.37a14.72,14.72,0,0,1,2,.08,1.09,1.09,0,0,1,1,.92,1.39,1.39,0,0,1-.44,1.52.41.41,0,0,0-.13.66c.23.35.5.69.72,1.05a.7.7,0,0,1,.12.45.44.44,0,0,1-.36.19,1.65,1.65,0,0,1-.71-.46A5.23,5.23,0,0,1,13.22,31a.56.56,0,0,0-.77-.31c-.12,0-.19.33-.21.52a4.17,4.17,0,0,0,0,.79c0,.32-.07.5-.44.49s-.42-.18-.41-.47Zm.83-.9c0,.86,0,.87.51.88.78,0,1.1-.22,1.12-.8s-.26-.89-.91-.9S12.23,28.36,12.21,29.2Z" />
                    <path
                        d="M15.59,30.14c0-.14,0-.28,0-.42-.13-1.26.73-2.23,2.32-2a1.68,1.68,0,0,1,1.51,1.42,9.31,9.31,0,0,1,0,1.9,1.82,1.82,0,0,1-2,1.67,1.8,1.8,0,0,1-1.84-1.83c0-.23,0-.46,0-.69Zm3,0h0c0-.26,0-.53,0-.79a1.1,1.1,0,0,0-2.19-.05c0,.57,0,1.15,0,1.72a1,1,0,0,0,1.09,1,1,1,0,0,0,1.09-1C18.62,30.72,18.61,30.43,18.61,30.13Z" />
                    <path
                        d="M7,30.12c0-.65,0-1.31,0-2,0-.29.08-.44.4-.42a17.31,17.31,0,0,1,1.9.12,1.2,1.2,0,0,1,1,1.3c0,.83-.22,1.33-.91,1.55a5.41,5.41,0,0,1-1.14.17c-.28,0-.4.1-.39.38s0,.53,0,.79,0,.52-.45.52S7,32.34,7,32C7,31.39,7,30.76,7,30.12Zm.88-.81h0a3,3,0,0,0,0,.6c0,.12.16.3.25.31A2.3,2.3,0,0,0,9,30.16.9.9,0,0,0,9.52,29c-.12-.47-.62-.73-1.3-.62s-.22.52-.3.79C7.9,29.21,7.92,29.26,7.92,29.31Z" />
                </g>
            </g>
        </svg>

    </symbol>

    <!-- Matplotlib -->
    <symbol id="bw-tech-matplotlib" viewBox="0 0 24 24">

        <svg xmlns="http://www.w3.org/2000/svg" viewBox="0 0 32.86 32.86">
            <g id="Layer_2" data-name="Layer 2">
                <g id="Layer_1-2" data-name="Layer 1">
                    <path
                        d="M16.44,0A16.43,16.43,0,1,1,0,16.38,16.47,16.47,0,0,1,16.44,0ZM30.63,16.28c.35,0,.71,0,1.06,0,.62.06.84-.18.8-.81a16.12,16.12,0,0,0-4.17-9.89c-.28-.31-.49-.34-.79,0-.55.59-1.11,1.17-1.71,1.7-.42.38-.46.64-.06,1.09a11.81,11.81,0,0,1,2.88,6.21C28.91,16.27,28.89,16.28,30.63,16.28ZM16.28,30.63a6.4,6.4,0,0,1,0-1c.08-.64-.17-.87-.82-.92a12.08,12.08,0,0,1-7.29-3.11c-.3-.27-.49-.24-.75,0-.59.62-1.18,1.23-1.81,1.81-.37.34-.36.58,0,.9a16.11,16.11,0,0,0,9.31,4.08c1.33.13,1.34.1,1.34-1.28Zm-14-14c-.38,0-.76,0-1.13,0-.56,0-.76.16-.73.73a16,16,0,0,0,4.16,10c.28.31.49.36.8,0,.55-.58,1.11-1.16,1.71-1.7.41-.38.47-.63.06-1.09a11.84,11.84,0,0,1-2.89-6.2C4,16.59,4,16.58,2.24,16.58ZM16.59,2.17a8,8,0,0,1,0,1c-.07.64.12.93.84,1a11.9,11.9,0,0,1,7.22,3.08c.36.33.57.24.86-.07C26,6.58,26.57,6,27.16,5.49s.42-.71-.05-1.11A16.44,16.44,0,0,0,18.29.44c-1.7-.21-1.7-.22-1.7,1.5ZM2.19,16.28a8,8,0,0,1,1,0c.68.09.91-.18,1-.86A11.92,11.92,0,0,1,7.22,8.21c.29-.33.26-.53,0-.81C6.6,6.85,6,6.29,5.48,5.69s-.67-.42-1.06,0a15.85,15.85,0,0,0-4,9c-.19,1.87-.13,1.49,1.38,1.53Zm28.5.3c-.33,0-.66,0-1,0-.65-.08-.93.13-1,.84a11.53,11.53,0,0,1-2.15,6c-.34.47-.35.78.15,1.09.32.2.52.47.15.77-.72.57-.46,1,.13,1.46a2.22,2.22,0,0,1,.37.38c.4.54.7.41,1.1,0a16.37,16.37,0,0,0,3.94-8.82c.22-1.7.22-1.7-1.51-1.7Zm-14.1,14v.91c0,1,0,1,1,1a15.76,15.76,0,0,0,8.8-3.41c1.38-1.08,1.36-1.07.14-2.32-.39-.4-.66-.44-1,0s-.68.51-1,0-.61-.41-1-.11a11.62,11.62,0,0,1-5.21,2.07C16.59,28.89,16.59,28.87,16.59,30.59ZM16.28,2.28c0-.4,0-.8,0-1.2s-.14-.73-.69-.7a16,16,0,0,0-10,4.18c-.33.29-.3.5,0,.79.59.55,1.14,1.14,1.72,1.7.23.21.39.62.85.23s.17-.66-.08-.93-.28-.55.1-.83a14.37,14.37,0,0,1,4.72-2.29c.44-.12.71,0,.76.44s.35.64.87.56C16.28,4,16.28,4,16.28,2.28Zm10.26,14v0a8,8,0,0,1,1,0c.75.09,1-.21.89-.94a12.16,12.16,0,0,0-3-6.87c-.27-.32-.48-.37-.79-.05-.6.64-1.22,1.26-1.86,1.87-.3.28-.31.49,0,.81a8.1,8.1,0,0,1,1.76,3.54c.12.52.08,1.25.41,1.52S26,16.28,26.54,16.31ZM16.28,26.7h0a7.8,7.8,0,0,0,0-1.28.78.78,0,0,0-.42-.49c-.57-.22-1.19-.3-1.73-.56-1-.5-2-1.05-3-1.64-.32-.2-.5-.23-.76,0-.59.62-1.18,1.24-1.81,1.81-.42.38-.33.62.06,1a12.3,12.3,0,0,0,6.09,2.79c1.62.26,1.63.26,1.63-1.39ZM26.57,16.58a6.4,6.4,0,0,1-1,0c-.64-.08-.89.17-.94.81a7.53,7.53,0,0,1-1.38,3.71.51.51,0,0,0,.14.82c.68.51,1.36,1,2,1.59.37.31.58.24.84-.14a11.8,11.8,0,0,0,2.11-5.58c.13-1.19.11-1.2-1.12-1.2Zm-10,10a8,8,0,0,1,0,1c-.07.67.21.87.87.81a12.13,12.13,0,0,0,5.94-2.16c.4-.27.4-.49.11-.84-.53-.63-1.05-1.28-1.54-1.94-.29-.39-.5-.38-.93-.16a17.29,17.29,0,0,1-3.5,1.49c-.83.2-1,.48-1,1.22A4,4,0,0,1,16.59,26.61Zm0-20.36h0c0,.57-.13,1.29.15,1.68s1,.28,1.53.4a2.18,2.18,0,0,1,.44.11c.46.21.67,0,.84-.41.45-1.14.46-1.13,1.55-.6.16.07.31.16.47.24,1.22.68,1.2.67.44,1.85-.11.17,0,.46-.05.69.23-.07.51-.07.67-.21.61-.56,1.17-1.18,1.78-1.74.37-.35.35-.58,0-.9a12.21,12.21,0,0,0-6.3-2.86c-1.46-.21-1.46-.19-1.46,1.29ZM8,17.94c-1.11.2-2.1.36-3.08.57a.53.53,0,0,0-.26.46,11.44,11.44,0,0,0,2.82,5.48.64.64,0,0,0,.64,0c.69-.62,1.35-1.28,2-2a.63.63,0,0,0,0-.61,9,9,0,0,1-1.79-3.53C8.31,18.17,8.12,18,8,17.94Zm14.46-1.66c.43,0,.85,0,1.28,0s.61-.17.57-.62a7.61,7.61,0,0,0-1.85-4.36.66.66,0,0,0-.64,0c-.49.42-.91.93-1.4,1.35s-1.06,1.06-.3,1.82a1.63,1.63,0,0,1,.28.61c.41,1.22.41,1.22,1.68,1.22Zm.05.3v0a4.22,4.22,0,0,0-1.69.13c-.32.18-.34.88-.51,1.34a2.1,2.1,0,0,1-.27.54c-.24.34-.15.58.17.82.67.51,1.35,1,2,1.59.37.32.64.26.81-.15a23.72,23.72,0,0,0,1.19-3c.33-1.21.22-1.27-1-1.27ZM15.4,20.86c0-.07-.1-.28-.24-.37a9.26,9.26,0,0,0-1.39-.74.67.67,0,0,0-.56.15c-.66.62-1.31,1.26-1.91,1.93-.11.12-.11.57,0,.63.94.56,1.91,1.08,2.9,1.57a.62.62,0,0,0,.54-.25C15,22.86,15.17,21.92,15.4,20.86Zm-5-10.18c-.11-.14-.2-.26-.3-.37l-1-1C7.7,7.93,7.7,7.93,6.55,9.58s-1,1.51.56,2.29c.56.27,1.19.8,1.69.7s.79-.86,1.18-1.34C10.12,11.06,10.24,10.88,10.38,10.68Zm6.89,10.19c.19,1.08.33,2,.54,2.95a.67.67,0,0,0,.59.29,12.16,12.16,0,0,0,2-.77c1-.55,1-.58.33-1.48l-.61-.77c-1-1.24-1-1.25-2.4-.61A1.49,1.49,0,0,0,17.27,20.87ZM12,17.24c-1.13.2-2.1.36-3.06.57a.65.65,0,0,0-.23.57q.78,1.62,1.65,3.18a.66.66,0,0,0,.63,0c.68-.6,1.31-1.25,1.93-1.91a1.37,1.37,0,0,0,.18-.56c-.19,0-.43-.05-.58,0-.48.28-.92.61-1.38.92-.24.16-.48.34-.65-.08s-.28-.61.18-.81a10.17,10.17,0,0,0,1.47-.75.77.77,0,0,0,.22-.65C12.36,17.56,12.14,17.38,12,17.24ZM16.28,6.31c0-2.06-.05-2.09-1.76-1.76-.56.1-.63.35-.51.82.17.71.35,1.41.46,2.13s.41.82,1.08.71.79-.28.73-.85C16.25,7,16.28,6.66,16.28,6.31Zm.88,2.22c-.43-.1-.59.11-.58.57,0,.75,0,1.51,0,2.26,0,.56.1.85.72,1s.72-.26.86-.67.29-.75.43-1.13C19.22,8.79,19.08,8.59,17.16,8.53Zm-6.6,2.38c-.41.69-.79,1.32-1.15,2,0,0,.2.21.33.27.81.4,1.63.78,2.44,1.19.41.21.58,0,.78-.3s.36-.52,0-.84c-.67-.62-1.29-1.27-1.93-1.91C10.94,11.18,10.82,11.1,10.56,10.91Zm6.55,5.68-.09.2c.72.58,1.43,1.16,2.16,1.73a.7.7,0,0,0,.38.1c.25-.61.47-1.23.68-1.85a.84.84,0,0,0-.36-.18C19,16.58,18,16.59,17.11,16.59Zm-.84-6.26a13.62,13.62,0,0,0,0-1.43c-.06-.65-.56-.32-.88-.34s-.64,0-.53.51c.22.93.4,1.86.64,2.78,0,.15.3.29.48.32s.28-.26.29-.41C16.3,11.29,16.27,10.81,16.27,10.33ZM17.12,16l.1.16,1.86-.5c.36-.11.69-.19.79.33,0,.1.15.17.23.25,0-.12.19-.27.16-.35-.22-.6-.47-1.2-.74-1.78,0-.08-.35-.14-.41-.08C18.43,14.66,17.78,15.33,17.12,16Zm-.93,1.23L15.88,17c-.5.56-1,1.13-1.51,1.67s-.58.7.18,1.12a1.44,1.44,0,0,0,.55.23c.17,0,.47-.1.5-.22C15.83,19,16,18.1,16.19,17.22Zm.66-.13-.2.09c.12.75.22,1.5.37,2.24a1.8,1.8,0,0,0,.35.72,8.93,8.93,0,0,0,1.26-.58.48.48,0,0,0-.06-.33C18,18.51,17.43,17.8,16.85,17.09ZM11,10a1.12,1.12,0,0,0-.08-.18c-.67-.81-1.33-1.64-2-2.42-.07-.08-.41,0-.55.11A.49.49,0,0,0,8.3,8c.7.75,1.44,1.47,2.17,2.19a.39.39,0,0,0,.33.07C10.89,10.25,11,10.11,11,10Zm5.58,5.23.2.06c.26-.7.53-1.39.77-2.1.05-.14,0-.43,0-.46a1.29,1.29,0,0,0-.71-.15c-.1,0-.22.3-.22.47C16.57,13.82,16.59,14.54,16.59,15.27Zm2.57-2.21.22.21c.78-.79,1.57-1.58,2.33-2.39.07-.06,0-.35-.06-.41a.44.44,0,0,0-.43,0C20.52,11.34,19.85,12.2,19.16,13.06Zm-3.84,2.75.15-.2c-.53-.5-1.06-1-1.57-1.49-.28-.28-.46-.22-.66.07s-.28.53.12.71Zm0,1.1-.07-.22c-.76.13-1.52.24-2.27.42-.13,0-.31.39-.26.46s.4.36.51.32C14,17.6,14.66,17.24,15.35,16.91ZM13.4,13.26l.2-.18c-.66-.81-1.32-1.63-2-2.42-.08-.1-.31-.08-.48-.11,0,.14,0,.34.12.43C12,11.75,12.68,12.51,13.4,13.26Zm2.72,1.5h.15c0-.6,0-1.2,0-1.79,0-.13-.22-.24-.33-.36-.07.13-.21.28-.19.4C15.84,13.6,16,14.18,16.12,14.76Zm-1.29,3.08-.13-.16c-.4.27-.81.53-1.2.83-.07,0,0,.24-.05.37s.25,0,.32,0C14.13,18.52,14.48,18.17,14.83,17.84Z" />
                </g>
            </g>
        </svg>

    </symbol>

    <!-- React -->
    <symbol id="bw-tech-react" viewBox="0 0 24 24">
        <svg xmlns="http://www.w3.org/2000/svg" viewBox="0 0 512 512">
            <!--!Font Awesome Free 6.6.0 by @fontawesome - https://fontawesome.com License - https://fontawesome.com/license/free Copyright 2024 Fonticons, Inc.-->
            <path
                d="M418.2 177.2c-5.4-1.8-10.8-3.5-16.2-5.1 .9-3.7 1.7-7.4 2.5-11.1 12.3-59.6 4.2-107.5-23.1-123.3-26.3-15.1-69.2 .6-112.6 38.4-4.3 3.7-8.5 7.6-12.5 11.5-2.7-2.6-5.5-5.2-8.3-7.7-45.5-40.4-91.1-57.4-118.4-41.5-26.2 15.2-34 60.3-23 116.7 1.1 5.6 2.3 11.1 3.7 16.7-6.4 1.8-12.7 3.8-18.6 5.9C38.3 196.2 0 225.4 0 255.6c0 31.2 40.8 62.5 96.3 81.5 4.5 1.5 9 3 13.6 4.3-1.5 6-2.8 11.9-4 18-10.5 55.5-2.3 99.5 23.9 114.6 27 15.6 72.4-.4 116.6-39.1 3.5-3.1 7-6.3 10.5-9.7 4.4 4.3 9 8.4 13.6 12.4 42.8 36.8 85.1 51.7 111.2 36.6 27-15.6 35.8-62.9 24.4-120.5-.9-4.4-1.9-8.9-3-13.5 3.2-.9 6.3-1.9 9.4-2.9 57.7-19.1 99.5-50 99.5-81.7 0-30.3-39.4-59.7-93.8-78.4zM282.9 92.3c37.2-32.4 71.9-45.1 87.7-36 16.9 9.7 23.4 48.9 12.8 100.4-.7 3.4-1.4 6.7-2.3 10-22.2-5-44.7-8.6-67.3-10.6-13-18.6-27.2-36.4-42.6-53.1 3.9-3.7 7.7-7.2 11.7-10.7zM167.2 307.5c5.1 8.7 10.3 17.4 15.8 25.9-15.6-1.7-31.1-4.2-46.4-7.5 4.4-14.4 9.9-29.3 16.3-44.5 4.6 8.8 9.3 17.5 14.3 26.1zm-30.3-120.3c14.4-3.2 29.7-5.8 45.6-7.8-5.3 8.3-10.5 16.8-15.4 25.4-4.9 8.5-9.7 17.2-14.2 26-6.3-14.9-11.6-29.5-16-43.6zm27.4 68.9c6.6-13.8 13.8-27.3 21.4-40.6s15.8-26.2 24.4-38.9c15-1.1 30.3-1.7 45.9-1.7s31 .6 45.9 1.7c8.5 12.6 16.6 25.5 24.3 38.7s14.9 26.7 21.7 40.4c-6.7 13.8-13.9 27.4-21.6 40.8-7.6 13.3-15.7 26.2-24.2 39-14.9 1.1-30.4 1.6-46.1 1.6s-30.9-.5-45.6-1.4c-8.7-12.7-16.9-25.7-24.6-39s-14.8-26.8-21.5-40.6zm180.6 51.2c5.1-8.8 9.9-17.7 14.6-26.7 6.4 14.5 12 29.2 16.9 44.3-15.5 3.5-31.2 6.2-47 8 5.4-8.4 10.5-17 15.5-25.6zm14.4-76.5c-4.7-8.8-9.5-17.6-14.5-26.2-4.9-8.5-10-16.9-15.3-25.2 16.1 2 31.5 4.7 45.9 8-4.6 14.8-10 29.2-16.1 43.4zM256.2 118.3c10.5 11.4 20.4 23.4 29.6 35.8-19.8-.9-39.7-.9-59.5 0 9.8-12.9 19.9-24.9 29.9-35.8zM140.2 57c16.8-9.8 54.1 4.2 93.4 39 2.5 2.2 5 4.6 7.6 7-15.5 16.7-29.8 34.5-42.9 53.1-22.6 2-45 5.5-67.2 10.4-1.3-5.1-2.4-10.3-3.5-15.5-9.4-48.4-3.2-84.9 12.6-94zm-24.5 263.6c-4.2-1.2-8.3-2.5-12.4-3.9-21.3-6.7-45.5-17.3-63-31.2-10.1-7-16.9-17.8-18.8-29.9 0-18.3 31.6-41.7 77.2-57.6 5.7-2 11.5-3.8 17.3-5.5 6.8 21.7 15 43 24.5 63.6-9.6 20.9-17.9 42.5-24.8 64.5zm116.6 98c-16.5 15.1-35.6 27.1-56.4 35.3-11.1 5.3-23.9 5.8-35.3 1.3-15.9-9.2-22.5-44.5-13.5-92 1.1-5.6 2.3-11.2 3.7-16.7 22.4 4.8 45 8.1 67.9 9.8 13.2 18.7 27.7 36.6 43.2 53.4-3.2 3.1-6.4 6.1-9.6 8.9zm24.5-24.3c-10.2-11-20.4-23.2-30.3-36.3 9.6 .4 19.5 .6 29.5 .6 10.3 0 20.4-.2 30.4-.7-9.2 12.7-19.1 24.8-29.6 36.4zm130.7 30c-.9 12.2-6.9 23.6-16.5 31.3-15.9 9.2-49.8-2.8-86.4-34.2-4.2-3.6-8.4-7.5-12.7-11.5 15.3-16.9 29.4-34.8 42.2-53.6 22.9-1.9 45.7-5.4 68.2-10.5 1 4.1 1.9 8.2 2.7 12.2 4.9 21.6 5.7 44.1 2.5 66.3zm18.2-107.5c-2.8 .9-5.6 1.8-8.5 2.6-7-21.8-15.6-43.1-25.5-63.8 9.6-20.4 17.7-41.4 24.5-62.9 5.2 1.5 10.2 3.1 15 4.7 46.6 16 79.3 39.8 79.3 58 0 19.6-34.9 44.9-84.8 61.4zm-149.7-15c25.3 0 45.8-20.5 45.8-45.8s-20.5-45.8-45.8-45.8c-25.3 0-45.8 20.5-45.8 45.8s20.5 45.8 45.8 45.8z" />
        </svg>
    </symbol>

    <!-- JavaScript -->
    <symbol id="bw-tech-javascript" viewBox="0 0 24 24">
        <svg xmlns="http://www.w3.org/2000/svg" viewBox="0 0 448 512">
            <!--!Font Awesome Free 6.6.0 by @fontawesome - https://fontawesome.com License - https://fontawesome.com/license/free Copyright 2024 Fonticons, Inc.-->
            <path
                d="M0 32v448h448V32H0zm243.8 349.4c0 43.6-25.6 63.5-62.9 63.5-33.7 0-53.2-17.4-63.2-38.5l34.3-20.7c6.6 11.7 12.6 21.6 27.1 21.6 13.8 0 22.6-5.4 22.6-26.5V237.7h42.1v143.7zm99.6 63.5c-39.1 0-64.4-18.6-76.7-43l34.3-19.8c9 14.7 20.8 25.6 41.5 25.6 17.4 0 28.6-8.7 28.6-20.8 0-14.4-11.4-19.5-30.7-28l-10.5-4.5c-30.4-12.9-50.5-29.2-50.5-63.5 0-31.6 24.1-55.6 61.6-55.6 26.8 0 46 9.3 59.8 33.7L368 290c-7.2-12.9-15-18-27.1-18-12.3 0-20.1 7.8-20.1 18 0 12.6 7.8 17.7 25.9 25.6l10.5 4.5c35.8 15.3 55.9 31 55.9 66.2 0 37.8-29.8 58.6-69.7 58.6z" />
        </svg>
    </symbol>

    <!-- HTML -->
    <symbol id="bw-tech-html" viewBox="0 0 24 24">
        <svg xmlns="http://www.w3.org/2000/svg" viewBox="0 0 384 512">
            <!--!Font Awesome Free 6.6.0 by @fontawesome - https://fontawesome.com License - https://fontawesome.com/license/free Copyright 2024 Fonticons, Inc.-->
            <path
                d="M0 32l34.9 395.8L191.5 480l157.6-52.2L384 32H0zm308.2 127.9H124.4l4.1 49.4h175.6l-13.6 148.4-97.9 27v.3h-1.1l-98.7-27.3-6-75.8h47.7L138 320l53.5 14.5 53.7-14.5 6-62.2H84.3L71.5 112.2h241.1l-4.4 47.7z" />
        </svg>
    </symbol>

    <!-- CSS -->
    <symbol id="bw-tech-css" viewBox="0 0 24 24">
        <svg xmlns="http://www.w3.org/2000/svg" viewBox="0 0 384 512">
            <!--!Font Awesome Free 6.6.0 by @fontawesome - https://fontawesome.com License - https://fontawesome.com/license/free Copyright 2024 Fonticons, Inc.-->
            <path
                d="M0 32l34.9 395.8L192 480l157.1-52.2L384 32H0zm313.1 80l-4.8 47.3L193 208.6l-.3 .1h111.5l-12.8 146.6-98.2 28.7-98.8-29.2-6.4-73.9h48.9l3.2 38.3 52.6 13.3 54.7-15.4 3.7-61.6-166.3-.5v-.1l-.2 .1-3.6-46.3L193.1 162l6.5-2.7H76.7L70.9 112h242.2z" />
        </svg>
    </symbol>

</svg>